<?xml version="1.0" encoding="utf-8"?>
<!-- Generator: Adobe Illustrator 25.2.1, SVG Export Plug-In . SVG Version: 6.00 Build 0)  -->
<svg version="1.1" id="Layer_1" xmlns="http://www.w3.org/2000/svg" xmlns:xlink="http://www.w3.org/1999/xlink" x="0px" y="0px"
	 viewBox="0 0 564.6 566.9" style="enable-background:new 0 0 564.6 566.9;" xml:space="preserve">
<style type="text/css">
	.st0{fill:#00AEEF;}
	.st1{fill:none;}
</style>
<g>
	<path class="st0" d="M346.9,199.5h-691.6L1.1-399.4L346.9,199.5z M-330.6,191.5H333L1.1-383.3L-330.6,191.5z"/>
	<path class="st0" d="M355.5,204.5h-708.7L1.1-409.3L355.5,204.5z M-322.1,186.5h646.5L1.1-373.4L-322.1,186.5z"/>
</g>
<g>
	<path class="st0" d="M1.1,399.1l-345.8-598.9h691.6L1.1,399.1z M-330.6-191.8L1.1,383l331.8-574.7L-330.6-191.8L-330.6-191.8z"/>
	<path class="st0" d="M1.1,409l-354.3-613.8h708.7L1.1,409z M-322.1-186.8l323.2,560l323.2-560H-322.1z"/>
</g>
<g>
	<rect x="-228.7" y="-2.9" class="st0" width="64.6" height="8"/>
	<rect x="-233.6" y="-7.9" class="st0" width="74.5" height="17.9"/>
</g>
<g>
	<rect x="166.9" y="-2.9" class="st0" width="58.6" height="8"/>
	<rect x="162.1" y="-7.9" class="st0" width="68.4" height="17.9"/>
</g>
<g>
	<path class="st0" d="M-0.1,403l-349-201.4v-403l349-201.5l349,201.5v403L-0.1,403z M-341.1,196.9L-0.1,393.6l340.9-196.8v-393.7
		L-0.1-393.7L-341.1-197V196.9z"/>
	<path class="st0" d="M-0.1,408.7l-353.9-204.2v-408.7L-0.1-408.6l353.9,204.4v408.7L-0.1,408.7z M-336.1,194l336,193.9l336-193.9
		v-388l-336-193.9l-336,193.9V194z"/>
</g>
<g>
	<polygon class="st0" points="146.5,79.8 346.8,195.7 342.8,202.7 142.5,86.7 	"/>
	<polygon class="st0" points="344.6,209.4 135.7,88.5 144.7,73.1 353.6,193.9 	"/>
</g>
<g>
	<polyline class="st0" points="-335.7,-199.3 -143.2,-88.2 -146.9,-81.1 -339.7,-192.3 	"/>
	<polygon class="st0" points="-145,-74.2 -342.1,-188 -337.3,-196.5 -337.3,-196.5 -333.2,-203.5 -136.5,-90.1 	"/>
</g>
<g>
	<polygon class="st0" points="-347.1,195.7 -146,80.2 -143.2,87.9 -343.1,202.7 	"/>
	<polygon class="st0" points="-344.9,209.4 -353.9,193.9 -143.4,73.1 -137,90 	"/>
</g>
<g>
	<polygon class="st0" points="140.2,-84.6 342.8,-202.6 346.8,-195.6 145.5,-78.3 	"/>
	<polygon class="st0" points="144.5,-72 132.6,-85.9 344.6,-209.3 353.6,-193.8 	"/>
</g>
<g>
	<g>
		<path class="st0" d="M-0.1,171.3c-94.5,0-171.3-76.8-171.3-171.3S-94.6-171.3-0.1-171.3S171.2-94.5,171.2,0S94.3,171.3-0.1,171.3z
			 M-0.1-160.9C-88.9-160.9-161-88.7-161,0c0,88.8,72.2,160.9,160.9,160.9S160.7,88.8,160.7,0C160.7-88.7,88.5-160.9-0.1-160.9z"/>
		<path class="st0" d="M-0.1,176.3c-97.2,0-176.3-79.1-176.3-176.3S-97.4-176.3-0.1-176.3S176.1-97.2,176.1,0S97.1,176.3-0.1,176.3z
			 M-0.1-166.3c-91.7,0-166.5,74.6-166.5,166.4S-92,166.4-0.2,166.4S166.2,91.7,166.2,0S91.6-166.3-0.1-166.3z M-0.1,165.8
			C-91.6,165.8-166,91.4-166,0S-91.6-165.8-0.1-165.8S165.7-91.4,165.7,0S91.3,165.8-0.1,165.8z M-0.1-155.9c-86,0-156,70-156,156
			s70,156,156,156S155.8,86,155.8,0S85.9-155.9-0.1-155.9z"/>
	</g>
</g>
<g>
	<line class="st1" x1="-145.2" y1="79.8" x2="-141.1" y2="86.7"/>
	
		<rect x="-148.1" y="79.2" transform="matrix(0.8634 -0.5045 0.5045 0.8634 -61.5165 -60.8579)" class="st0" width="9.8" height="8"/>
</g>
</svg>
