<?xml version="1.0" encoding="utf-8"?>
<!-- Generator: Adobe Illustrator 25.2.1, SVG Export Plug-In . SVG Version: 6.00 Build 0)  -->
<svg version="1.1" id="Layer_1" xmlns="http://www.w3.org/2000/svg" xmlns:xlink="http://www.w3.org/1999/xlink" x="0px" y="0px"
	 viewBox="0 0 564.6 566.9" style="enable-background:new 0 0 564.6 566.9;" xml:space="preserve">
<style type="text/css">
	.st0{fill:#00AEEF;}
</style>
<ellipse transform="matrix(0.9732 -0.2298 0.2298 0.9732 -20.472 53.7957)" class="st0" cx="220.8" cy="114.8" rx="40.5" ry="40.5"/>
<ellipse transform="matrix(0.9732 -0.2298 0.2298 0.9732 -32.3112 -47.886)" class="st0" cx="-221.8" cy="114.8" rx="40.5" ry="40.5"/>
<ellipse transform="matrix(0.7071 -0.7071 0.7071 0.7071 175.0576 -71.1857)" class="st0" cx="1.6" cy="-246.9" rx="40.8" ry="40.8"/>
<g>
	<path class="st0" d="M-221.8,175.6c-33.5,0-60.8-27.3-60.8-60.8s27.3-60.8,60.8-60.8s60.8,27.3,60.8,60.8S-188.3,175.6-221.8,175.6
		z M-221.8,65c-27.4,0-49.8,22.3-49.8,49.8c0,27.4,22.3,49.8,49.8,49.8s49.8-22.3,49.8-49.8C-172,87.4-194.3,65-221.8,65z"/>
</g>
<g>
	<path class="st0" d="M1.6-186.1c-33.5,0-60.8-27.3-60.8-60.8s27.3-60.8,60.8-60.8s60.8,27.3,60.8,60.8S35.1-186.1,1.6-186.1z
		 M1.6-296.7c-27.4,0-49.8,22.3-49.8,49.8c0,27.4,22.3,49.8,49.8,49.8s49.8-22.3,49.8-49.8C51.4-274.4,29-296.7,1.6-296.7z"/>
</g>
<g>
	<path class="st0" d="M220.8,175.6c-33.5,0-60.8-27.3-60.8-60.8s27.3-60.8,60.8-60.8s60.8,27.3,60.8,60.8S254.3,175.6,220.8,175.6z
		 M220.8,65c-27.4,0-49.8,22.3-49.8,49.8c0,27.4,22.3,49.8,49.8,49.8s49.8-22.3,49.8-49.8C270.5,87.4,248.2,65,220.8,65z"/>
</g>
<g>
	<path class="st0" d="M0,253.8c-139.9,0-253.8-113.9-253.8-253.8S-139.9-253.8,0-253.8S253.8-139.9,253.8,0S139.9,253.8,0,253.8z
		 M0-246.9c-136.1,0-246.9,110.8-246.9,246.9c0,136.1,110.8,246.9,246.9,246.9S246.9,136.1,246.9,0C246.9-136.1,136.1-246.9,0-246.9
		z"/>
</g>
</svg>
