<svg id="Layer_1" data-name="Layer 1" xmlns="http://www.w3.org/2000/svg" viewBox="0 0 564.58 566.91"><defs><style>.cls-1{fill:#00aeef;}</style></defs><path class="cls-1" d="M474.71,89.88A272.12,272.12,0,0,0,89.88,474.71,272.12,272.12,0,0,0,474.71,89.88Zm52,192.11a244.27,244.27,0,0,1-417,172.73A244.28,244.28,0,0,1,455.19,109.26,242.66,242.66,0,0,1,526.73,282Z"/><path class="cls-1" d="M282.29,564.58A282.29,282.29,0,0,1,82.68,82.68,282.29,282.29,0,0,1,481.9,481.9,280.41,280.41,0,0,1,282.29,564.58ZM282.29,5A277.29,277.29,0,0,0,86.22,478.37,277.29,277.29,0,0,0,478.37,86.22,275.47,275.47,0,0,0,282.29,5Z"/></svg>