<svg id="Layer_1" data-name="Layer 1" xmlns="http://www.w3.org/2000/svg" viewBox="0 0 564.58 566.91"><defs><style>.cls-1{fill:#00aeef;}</style></defs><path class="cls-1" d="M496.69,406.84H67.9L282.29,35.5Zm-420.13-5H488L282.29,45.5Z"/><path class="cls-1" d="M282.29,530.6,67.9,159.26H496.69ZM76.56,164.26,282.29,520.6,488,164.26Z"/><rect class="cls-1" x="139.82" y="281.33" width="284.77" height="5"/><path class="cls-1" d="M281.48,533,65.11,408.1V158.25L281.48,33.33,497.86,158.25V408.1ZM70.11,405.22l211.37,122,211.38-122V161.14L281.48,39.1l-211.37,122Z"/><rect class="cls-1" x="281.29" y="39.76" width="5" height="488.89" transform="translate(-104.35 387.46) rotate(-59.94)"/><rect class="cls-1" x="34.52" y="280.68" width="493.92" height="5" transform="translate(-103.88 178.68) rotate(-30)"/><path class="cls-1" d="M282.29,378A95.72,95.72,0,1,1,378,282.29,95.82,95.82,0,0,1,282.29,378Zm0-186.43A90.72,90.72,0,1,0,373,282.29,90.81,90.81,0,0,0,282.29,191.58Z"/></svg>