<?xml version="1.0" encoding="utf-8"?>
<!-- Generator: Adobe Illustrator 25.2.0, SVG Export Plug-In . SVG Version: 6.00 Build 0)  -->
<svg version="1.1" id="Layer_1" xmlns="http://www.w3.org/2000/svg" xmlns:xlink="http://www.w3.org/1999/xlink" x="0px" y="0px"
	 viewBox="0 0 564.6 566.9" style="enable-background:new 0 0 564.6 566.9;" xml:space="preserve">
<style type="text/css">
	.st0{fill:#0483A5;}
</style>
<g>
	<path class="st0" d="M390.7,225.4h-781.4L0-451.2L390.7,225.4z M-376.7,217.4h753.4L0-435.2L-376.7,217.4z"/>
</g>
<g>
	<path class="st0" d="M0,450.6c-60.8,0-119.8-11.9-175.3-35.5c-53.7-22.6-101.8-55.2-143.2-96.6s-74-89.6-96.6-143.2
		C-438.7,119.7-450.6,60.8-450.6,0s11.9-119.8,35.5-175.3c22.6-53.7,55.2-101.8,96.6-143.2s89.6-74,143.2-96.6
		c55.6-23.6,114.6-35.5,175.3-35.5s119.8,11.9,175.3,35.5c53.7,22.6,101.8,55.2,143.2,96.6s74,89.6,96.6,143.2
		C438.7-119.7,450.6-60.8,450.6,0s-11.9,119.8-35.5,175.3c-22.6,53.7-55.2,101.8-96.6,143.2s-89.6,74-143.2,96.6
		C119.8,438.7,60.8,450.6,0,450.6z M0-442.6c-59.7,0-117.7,11.7-172.2,34.7c-52.7,22.3-100,54.2-140.7,94.9s-72.6,88-94.9,140.6
		c-23,54.7-34.7,112.6-34.7,172.3s11.7,117.7,34.7,172.2c22.3,52.6,54.1,100,94.9,140.6s88,72.6,140.6,94.9
		c54.7,23.2,112.5,34.8,172.3,34.8s117.7-11.7,172.2-34.7c52.7-22.3,100-54.2,140.7-94.9s72.6-88,94.9-140.6
		c23-54.7,34.7-112.6,34.7-172.3s-11.7-117.7-34.7-172.2C385.5-225,353.6-272.2,313-313s-88-72.6-140.6-94.9
		C117.7-430.9,59.7-442.6,0-442.6z"/>
</g>
<g>
	<path class="st0" d="M225.5,390.6L-451.1-0.1l676.7-390.7v781.4H225.5z M-435-0.1l652.5,376.7v-753.4L-435-0.1z"/>
</g>
<g>
	<path class="st0" d="M0,451.1l-390.7-676.7h781.4L0,451.1z M-376.7-217.6L0,434.9l376.7-652.5H-376.7L-376.7-217.6z"/>
</g>
<g>
	<path class="st0" d="M-225.5,390.6v-781.5L451.1-0.2L-225.5,390.6z M-217.5-376.9v753.4L435-0.1L-217.5-376.9z"/>
</g>
<g>
	<path class="st0" d="M0,500.1c-67.5,0-133-13.2-194.6-39.2c-59.5-25.2-113.1-61.2-158.9-107.2s-82-99.4-107.2-158.9
		C-486.8,133.1-500,67.5-500,0.1s13.2-133,39.2-194.6c25.2-59.5,61.2-113.1,107.2-158.9s99.4-82,158.9-107.2
		c61.6-26,127.1-39.2,194.6-39.2s133,13.2,194.6,39.2c59.5,25.2,113.1,61.2,158.9,107.2s82,99.4,107.2,158.9
		C486.8-132.9,500-67.3,500,0.1s-13.2,133-39.2,194.6c-25.2,59.5-61.2,113.1-107.2,158.9s-99.4,82-158.9,107.2
		C133,486.9,67.5,500.1,0,500.1z M0-492.1c-66.5,0-130.9,13-191.5,38.7c-58.6,24.8-111.3,60.3-156.4,105.5
		c-45.2,45.2-80.6,97.7-105.5,156.4C-479.1-130.9-492.1-66.5-492.1,0s13,130.9,38.7,191.5c24.8,58.6,60.3,111.3,105.5,156.4
		c45.2,45.2,97.7,80.6,156.4,105.5c60.7,25.7,125.1,38.7,191.5,38.7s130.9-13,191.5-38.7c58.6-24.8,111.3-60.3,156.4-105.5
		s80.6-97.7,105.5-156.4C479.1,130.9,492.1,66.4,492.1,0s-13-130.9-38.7-191.5c-24.8-58.6-60.3-111.3-105.5-156.4
		c-45.2-45.2-97.7-80.6-156.4-105.5C130.9-479.1,66.5-492.1,0-492.1z"/>
</g>
<g>
	<path class="st0" d="M-424.9,24.3c-13.4,0-24.3-10.9-24.3-24.3s10.9-24.3,24.3-24.3s24.3,10.9,24.3,24.3S-411.5,24.3-424.9,24.3z
		 M-424.9-17.1c-9.5,0-17.1,7.6-17.1,17.1s7.6,17.1,17.1,17.1s17.1-7.6,17.1-17.1S-415.5-17.1-424.9-17.1z"/>
</g>
<g>
	<path class="st0" d="M471.4,27c-14.9,0-27-12.1-27-27s12.1-27,27-27c14.9,0,27,12.1,27,27S486.3,27,471.4,27z M471.4-19
		c-10.5,0-19,8.5-19,19s8.5,19,19,19c10.5,0,19-8.5,19-19S481.9-19,471.4-19z"/>
</g>
<g>
	<path class="st0" d="M0.5-442.8c-14.9,0-27-12.1-27-27c0-14.9,12.1-27,27-27s27,12.1,27,27C27.4-454.9,15.4-442.8,0.5-442.8z
		 M0.5-488.8c-10.5,0-19,8.5-19,19c0,10.5,8.5,19,19,19s19-8.5,19-19C19.4-480.3,10.9-488.8,0.5-488.8z"/>
</g>
<g>
	<path class="st0" d="M0.8,496.8c-14.9,0-27-12.1-27-27c0-14.9,12.1-27,27-27s27,12.1,27,27C27.8,484.7,15.6,496.8,0.8,496.8z
		 M0.8,450.9c-10.5,0-19,8.5-19,19c0,10.5,8.5,18.9,19,18.9s19-8.5,19-19C19.6,459.4,11.1,450.9,0.8,450.9z"/>
</g>
</svg>
