<?xml version="1.0" encoding="utf-8"?>
<!-- Generator: Adobe Illustrator 25.2.1, SVG Export Plug-In . SVG Version: 6.00 Build 0)  -->
<svg version="1.1" id="Layer_1" xmlns="http://www.w3.org/2000/svg" xmlns:xlink="http://www.w3.org/1999/xlink" x="0px" y="0px"
	 viewBox="0 0 564.6 566.9" style="enable-background:new 0 0 564.6 566.9;" xml:space="preserve">
<style type="text/css">
	.st0{fill:#0483A5;}
</style>
<g>
	<path class="st0" d="M388,223.9H-388L0-448.2L388,223.9z M-374.2,215.9h748.3L0-432.2L-374.2,215.9z"/>
</g>
<g>
	<path class="st0" d="M0,447.5c-60.4,0-119-11.8-174.2-35.2c-53.3-22.5-101.1-54.8-142.2-95.9c-41.1-41.1-73.4-89-95.9-142.2
		C-435.7,119-447.5,60.4-447.5,0s11.8-119,35.2-174.2c22.5-53.3,54.8-101.1,95.9-142.2c41.1-41.1,89-73.4,142.2-95.9
		C-119-435.7-60.4-447.5,0-447.5s119,11.8,174.2,35.2c53.3,22.5,101.1,54.8,142.2,95.9c41.1,41.1,73.4,89,95.9,142.2
		C435.7-119,447.5-60.4,447.5,0s-11.8,119-35.2,174.2c-22.5,53.3-54.8,101.1-95.9,142.2c-41.1,41.1-89,73.4-142.2,95.9
		C119,435.7,60.4,447.5,0,447.5z M0-439.5c-59.3,0-116.9,11.6-171.1,34.5c-52.3,22.1-99.3,53.8-139.7,94.2s-72.1,87.4-94.2,139.7
		C-427.9-116.9-439.5-59.3-439.5,0s11.6,116.9,34.5,171.1c22.1,52.3,53.8,99.3,94.2,139.7s87.4,72.1,139.7,94.2
		c54.2,22.9,111.7,34.5,171.1,34.5s116.9-11.6,171.1-34.5c52.3-22.1,99.3-53.8,139.7-94.2s72.1-87.4,94.2-139.7
		C427.9,116.9,439.5,59.3,439.5,0S427.9-116.9,405-171.1c-22.1-52.3-53.8-99.3-94.2-139.7s-87.4-72.1-139.7-94.2
		C116.9-427.9,59.3-439.5,0-439.5z"/>
</g>
<g>
	<path class="st0" d="M224,387.9l-672.1-388l672.1-388V387.9z M-432.1-0.1L216,374.1v-748.3L-432.1-0.1z"/>
</g>
<g>
	<path class="st0" d="M0,448l-388-672.1H388L0,448z M-374.2-216.1L0,432l374.2-648.1H-374.2z"/>
</g>
<g>
	<path class="st0" d="M-224,387.9v-776.1l672.1,388L-224,387.9z M-216-374.3v748.3L432.1-0.1L-216-374.3z"/>
</g>
<g>
	<path class="st0" d="M0,496.7c-67.1,0-132.1-13.1-193.3-39c-59.1-25-112.3-60.8-157.9-106.4c-45.6-45.6-81.4-98.7-106.4-157.9
		c-25.9-61.2-39-126.3-39-193.3s13.1-132.1,39-193.3c25-59.1,60.8-112.3,106.4-157.9s98.7-81.4,157.9-106.4
		c61.2-25.9,126.3-39,193.3-39s132.1,13.1,193.3,39c59.1,25,112.3,60.8,157.9,106.4c45.6,45.6,81.4,98.7,106.4,157.9
		c25.9,61.2,39,126.3,39,193.3s-13.1,132.1-39,193.3c-25,59.1-60.8,112.3-106.4,157.9c-45.6,45.6-98.7,81.4-157.9,106.4
		C132.1,483.6,67.1,496.7,0,496.7z M0-488.7c-66,0-130,12.9-190.2,38.4c-58.2,24.6-110.5,59.9-155.3,104.7
		c-44.9,44.9-80.1,97.1-104.7,155.3C-475.8-130-488.7-66-488.7,0s12.9,130,38.4,190.2c24.6,58.2,59.9,110.5,104.7,155.3
		c44.9,44.9,97.1,80.1,155.3,104.7C-130,475.8-66,488.7,0,488.7s130-12.9,190.2-38.4c58.2-24.6,110.5-59.9,155.3-104.7
		s80.1-97.1,104.7-155.3C475.8,130,488.7,66,488.7,0s-12.9-130-38.4-190.2c-24.6-58.2-59.9-110.5-104.7-155.3
		c-44.9-44.9-97.1-80.1-155.3-104.7C130-475.8,66-488.7,0-488.7z"/>
</g>
<g>
	<path class="st0" d="M-468.9,26.8c-14.8,0-26.8-12-26.8-26.8s12-26.8,26.8-26.8c14.8,0,26.8,12,26.8,26.8S-454.1,26.8-468.9,26.8z
		 M-468.9-18.8c-10.4,0-18.8,8.4-18.8,18.8s8.4,18.8,18.8,18.8c10.4,0,18.8-8.4,18.8-18.8S-458.5-18.8-468.9-18.8z"/>
</g>
<g>
	<path class="st0" d="M468.2,26.8c-14.8,0-26.8-12-26.8-26.8s12-26.8,26.8-26.8S495-14.8,495,0S483,26.8,468.2,26.8z M468.2-18.8
		c-10.4,0-18.8,8.4-18.8,18.8s8.4,18.8,18.8,18.8S487,10.4,487,0S478.6-18.8,468.2-18.8z"/>
</g>
<g>
	<path class="st0" d="M0.5-439.8c-14.8,0-26.8-12-26.8-26.8c0-14.8,12-26.8,26.8-26.8c14.8,0,26.8,12,26.8,26.8
		C27.3-451.8,15.3-439.8,0.5-439.8z M0.5-485.4c-10.4,0-18.8,8.4-18.8,18.8c0,10.4,8.4,18.8,18.8,18.8c10.4,0,18.8-8.4,18.8-18.8
		C19.3-477,10.9-485.4,0.5-485.4z"/>
</g>
<g>
	<path class="st0" d="M0.7,493.4c-14.8,0-26.8-12-26.8-26.8c0-14.8,12-26.8,26.8-26.8c14.8,0,26.8,12,26.8,26.8
		C27.5,481.4,15.5,493.4,0.7,493.4z M0.7,447.8c-10.4,0-18.8,8.4-18.8,18.8c0,10.4,8.4,18.8,18.8,18.8c10.4,0,18.8-8.4,18.8-18.8
		C19.5,456.2,11.1,447.8,0.7,447.8z"/>
</g>
</svg>
