<?xml version="1.0" encoding="utf-8"?>
<!-- Generator: Adobe Illustrator 25.2.0, SVG Export Plug-In . SVG Version: 6.00 Build 0)  -->
<svg version="1.1" id="Layer_1" xmlns="http://www.w3.org/2000/svg" xmlns:xlink="http://www.w3.org/1999/xlink" x="0px" y="0px"
	 viewBox="0 0 564.6 566.9" style="enable-background:new 0 0 564.6 566.9;" xml:space="preserve">
<style type="text/css">
	.st0{fill:#0483A5;}
</style>
<g>
	<path class="st0" d="M351.6,202.9h-703.3L0-406.1L351.6,202.9z M-339,195.7H339L0-391.7L-339,195.7z"/>
</g>
<g>
	<path class="st0" d="M0,405.6c-54.7,0-107.8-10.7-157.8-31.9c-48.3-20.3-91.6-49.7-128.9-86.9s-66.6-80.6-86.9-128.9
		c-21.2-50-32-103.1-32-157.8s10.7-107.8,32-157.8c20.3-48.3,49.7-91.6,86.9-128.9s80.6-66.6,128.9-86.9
		c50-21.2,103.1-31.9,157.8-31.9s107.8,10.7,157.8,31.9c48.3,20.3,91.6,49.7,128.9,86.9s66.6,80.6,86.9,128.9
		c21.2,50,32,103.1,32,157.8s-10.7,107.8-32,157.8c-20.3,48.3-49.7,91.6-86.9,128.9s-80.6,66.6-128.9,86.9
		C107.8,394.8,54.7,405.6,0,405.6z M0-398.3c-53.7,0-105.9,10.5-155,31.2c-47.4,20.1-90,48.8-126.6,85.4S-347-202.5-367-155.1
		c-20.7,49.2-31.2,101.3-31.2,155.1s10.5,105.9,31.2,155c20.1,47.3,48.7,90,85.4,126.5s79.2,65.3,126.5,85.4
		c49.2,20.9,101.2,31.3,155.1,31.3s105.9-10.5,155-31.2c47.4-20.1,90-48.8,126.6-85.4S347,202.3,367,155
		c20.7-49.2,31.2-101.3,31.2-155.1S387.7-106,367-155.1c-20.1-47.4-48.8-89.9-85.3-126.6c-36.5-36.7-79.2-65.3-126.5-85.4
		C105.9-387.8,53.7-398.3,0-398.3z"/>
</g>
<g>
	<path class="st0" d="M202.9,351.6L-406-0.1l609-351.6L202.9,351.6L202.9,351.6z M-391.5-0.1l587.2,339v-678.1L-391.5-0.1z"/>
</g>
<g>
	<path class="st0" d="M0,406l-351.6-609h703.3L0,406z M-339-195.8L0,391.4l339-587.2H-339L-339-195.8z"/>
</g>
<g>
	<path class="st0" d="M-202.9,351.6v-703.3L406-0.2L-202.9,351.6z M-195.8-339.2v678.1L391.5-0.1L-195.8-339.2z"/>
</g>
<g>
	<path class="st0" d="M0,450.1c-60.8,0-119.7-11.9-175.1-35.3c-53.6-22.7-101.8-55.1-143-96.5s-73.8-89.5-96.5-143
		C-438.1,119.8-450,60.8-450,0.1s11.9-119.7,35.3-175.1c22.7-53.5,55.1-101.8,96.5-143s89.5-73.8,143-96.5
		c55.4-23.4,114.4-35.3,175.1-35.3s119.7,11.9,175.1,35.3c53.5,22.7,101.8,55.1,143,96.5s73.8,89.5,96.5,143
		C438.1-119.6,450-60.6,450,0.1s-11.9,119.7-35.3,175.1c-22.7,53.6-55.1,101.8-96.5,143s-89.5,73.8-143,96.5
		C119.7,438.2,60.8,450.1,0,450.1z M0-442.9c-59.8,0-117.8,11.7-172.4,34.8c-52.7,22.3-100.2,54.3-140.8,94.9
		c-40.7,40.7-72.5,87.9-95,140.8C-431.2-117.8-442.9-59.8-442.9,0s11.7,117.8,34.8,172.4c22.3,52.7,54.3,100.2,95,140.8
		c40.7,40.7,87.9,72.5,140.8,94.9c54.6,23.1,112.6,34.8,172.4,34.8s117.8-11.7,172.4-34.8c52.7-22.3,100.2-54.3,140.8-94.9
		s72.5-87.9,95-140.8C431.2,117.8,442.9,59.8,442.9,0s-11.7-117.8-34.8-172.3c-22.3-52.7-54.3-100.2-95-140.8
		c-40.7-40.7-87.9-72.5-140.8-94.9C117.8-431.2,59.8-442.9,0-442.9z"/>
</g>
<g>
	<path class="st0" d="M-423.6,21.9c-12.1,0-21.9-9.8-21.9-21.9s9.8-21.9,21.9-21.9S-401.8-12-401.8,0S-411.6,21.9-423.6,21.9z
		 M-423.6-15.4c-8.6,0-15.4,6.8-15.4,15.4s6.8,15.4,15.4,15.4c8.5,0,15.4-6.8,15.4-15.4S-415.2-15.4-423.6-15.4z"/>
</g>
<g>
	<path class="st0" d="M424.3,24.3C410.9,24.3,400,13.4,400,0s10.9-24.3,24.3-24.3c13.4,0,24.3,10.9,24.3,24.3S437.7,24.3,424.3,24.3
		z M424.3-17.1c-9.5,0-17.1,7.6-17.1,17.1s7.6,17.1,17.1,17.1c9.4,0,17.1-7.7,17.1-17.1S433.7-17.1,424.3-17.1z"/>
</g>
<g>
	<path class="st0" d="M0.4-398.5c-13.4,0-24.3-10.9-24.3-24.3s10.9-24.3,24.3-24.3s24.3,10.9,24.3,24.3
		C24.7-409.4,13.9-398.5,0.4-398.5z M0.4-439.9c-9.4,0-17.1,7.7-17.1,17.1c0,9.5,7.6,17.1,17.1,17.1s17.1-7.6,17.1-17.1
		C17.5-432.3,9.8-439.9,0.4-439.9z"/>
</g>
<g>
	<path class="st0" d="M0.7,447.1c-13.4,0-24.3-10.9-24.3-24.3s10.9-24.3,24.3-24.3S25,409.4,25,422.8C25,436.2,14,447.1,0.7,447.1z
		 M0.7,405.8c-9.4,0-17.1,7.7-17.1,17.1c0,9.5,7.7,17,17.1,17s17.1-7.6,17.1-17.1C17.6,413.5,10,405.8,0.7,405.8z"/>
</g>
</svg>
