<?xml version="1.0" encoding="utf-8"?>
<!-- Generator: Adobe Illustrator 25.2.0, SVG Export Plug-In . SVG Version: 6.00 Build 0)  -->
<svg version="1.1" id="Layer_1" xmlns="http://www.w3.org/2000/svg" xmlns:xlink="http://www.w3.org/1999/xlink" x="0px" y="0px"
	 viewBox="0 0 564.6 566.9" style="enable-background:new 0 0 564.6 566.9;" xml:space="preserve">
<style type="text/css">
	.st0{fill:#0483A5;}
</style>
<g>
	<path class="st0" d="M0.3,450.9l-1.7-0.9L-394.7,226v-450.1l395-225l1.7,1l393.3,223.8v450.2L0.3,450.9z M-387.8,221.7l388.1,221
		l388.1-221.1v-441.9L0.3-441.4l-388.1,221L-387.8,221.7L-387.8,221.7z"/>
</g>
<g>
	<path class="st0" d="M0.1,361.1c-49.5,0-97.4-9.5-142.5-28.4c-43.5-18.2-82.8-44.2-116.3-77.4s-60-71.8-78.4-114.8
		C-356.3,95.9-366,48.7-366-0.1s9.6-96,28.8-140.5c18.3-42.9,44.8-81.6,78.4-114.8c33.7-33.2,72.8-59.1,116.3-77.4
		c45.1-18.8,93-28.4,142.5-28.4s97.4,9.5,142.5,28.4c43.5,18.2,82.8,44.2,116.3,77.4s60,71.8,78.4,114.8
		C356.4-96.2,366.2-49,366.2-0.1s-9.6,96-28.9,140.5c-18.3,43-44.8,81.6-78.4,114.8s-72.8,59.1-116.3,77.4
		C97.4,351.6,49.4,361.1,0.1,361.1z M0.1-354.1c-48.4,0-95.5,9.4-139.7,27.8c-42.7,17.8-81.1,43.4-114.1,75.9s-58.9,70.4-76.9,112.6
		c-18.7,43.5-28.2,90-28.2,137.8s9.5,94.1,28.2,137.8c18,42.1,44,80,76.9,112.6c33,32.5,71.4,58.1,114.1,75.9
		c44.2,18.2,91.2,27.6,139.7,27.6s95.5-9.2,139.8-27.7c42.7-17.8,81.1-43.4,114.1-75.9s58.9-70.4,76.9-112.6
		C349.7,94.2,359.1,47.7,359.1,0s-9.5-94.1-28.2-137.8c-18-42.2-44-80.1-76.9-112.7c-33-32.5-71.4-58.1-114.1-75.9
		C95.5-344.7,48.4-354.1,0.1-354.1z"/>
</g>
<path class="st0" d="M0.1,198.6c-67.1,0-130.4,25.8-177.8,72.7c-16.6,16.4-30.7,34.8-41.9,54.5l6.6,3.8
	c10.9-19.2,24.6-37.1,40.8-52.9c46.1-45.4,107.1-70.4,172.5-70.4s126.4,24.9,172.5,70.4c16.4,16.1,29.9,33.9,40.8,53.3l6.6-3.8
	c-11.2-19.8-25.3-38.2-42-54.8C130.3,224.3,67.3,198.6,0.1,198.6z"/>
<path class="st0" d="M164.7,284.4C120.6,240.9,62.2,217,0.1,217s-120.6,23.9-164.6,67.2c-15.5,15.4-28.4,32.4-38.9,50.7l33.4,19
	c33.2-59,96.9-99,170.1-99s137.1,40.1,170.1,99.3l33.4-19C193.3,316.8,180.2,299.8,164.7,284.4z"/>
<path class="st0" d="M-169.4-92.8c33.7-57.4,42.6-124.4,25.2-188.4c-6.2-22.5-15.1-43.6-26.9-63.1l-6.6,3.8
	c11.4,18.8,20.2,39.5,26.1,61.3c16.8,62,8.3,127-24.4,182.7S-261.2-1-324.1,15.5c-22.1,5.9-44.7,8.6-67.1,8.3v7.6
	c23.1,0.3,46.2-2.5,69.1-8.6C-257.2,5.7-203.1-35.4-169.4-92.8z"/>
<path class="st0" d="M-327,4.9c60-15.8,110.3-53.8,141.3-107.1s39.3-114.9,23.2-174.2c-5.6-20.9-14.1-40.5-25-58.5l-33.4,19
	c35.2,57.8,38.5,132.3,1.9,194.8c-36.6,62.8-103.7,97.1-172.1,96V13C-369.8,13.2-348.3,10.6-327,4.9z"/>
<path class="st0" d="M170-97.4c-33.7-57.4-42.6-124.4-25.2-188.4c6.2-22.5,15.1-43.6,26.9-63.1l6.6,3.8
	c-11.4,18.8-20.2,39.5-26.1,61.3c-16.8,62-8.3,127,24.4,182.7S261.9-5.8,324.7,10.9c22.1,5.9,44.7,8.6,67.1,8.3v7.6
	c-23.1,0.3-46.2-2.5-69.1-8.6C257.8,1.1,203.7-40,170-97.4z"/>
<path class="st0" d="M327.6,0.2c-60-15.8-110.2-53.8-141.4-106.9S146.9-221.7,163-280.9c5.6-20.9,14.1-40.5,25-58.5l33.4,19
	c-35.2,57.8-38.5,132.3-1.9,194.8s103.7,96.9,172.2,95.8v38C370.4,8.5,348.9,5.9,327.6,0.2z"/>
</svg>
