<?xml version="1.0" encoding="utf-8"?>
<!-- Generator: Adobe Illustrator 25.2.0, SVG Export Plug-In . SVG Version: 6.00 Build 0)  -->
<svg version="1.1" id="Layer_1" xmlns="http://www.w3.org/2000/svg" xmlns:xlink="http://www.w3.org/1999/xlink" x="0px" y="0px"
	 viewBox="0 0 564.6 566.9" style="enable-background:new 0 0 564.6 566.9;" xml:space="preserve">
<style type="text/css">
	.st0{fill:#0483A5;}
</style>
<g>
	<path class="st0" d="M0.3,570.5l-2.2-1.1l-497.8-283.6v-569.7l500-284.8l2.2,1.3l497.8,283.3v569.8L0.3,570.5z M-490.9,280.4
		L0.3,560.2l491.2-279.9v-559.4L0.3-558.9l-491.2,279.8V280.4z"/>
</g>
<g>
	<path class="st0" d="M0,456.8c-62.6,0-123.3-12-180.4-36c-55.1-23-104.8-56-147.2-98s-75.9-90.9-99.3-145.3
		c-24.2-56.3-36.5-116.1-36.5-177.9s12.2-121.5,36.5-177.9c23.2-54.3,56.7-103.3,99.3-145.3s92.2-74.8,147.2-98
		c57.1-23.8,117.7-36,180.4-36s123.3,12,180.4,36c55.1,23,104.8,56,147.2,98s75.9,90.9,99.3,145.3c24.2,56.3,36.5,116.1,36.5,177.9
		s-12.2,121.5-36.6,177.9c-23.2,54.4-56.7,103.3-99.3,145.3s-92.2,74.8-147.2,98C123.2,444.8,62.5,456.8,0,456.8z M0-448.4
		c-61.3,0-120.9,11.9-176.8,35.2c-54.1,22.5-102.6,54.9-144.4,96.1s-74.6,89.1-97.4,142.5c-23.7,55.1-35.7,113.9-35.7,174.4
		s12,119.1,35.7,174.4c22.8,53.3,55.7,101.3,97.4,142.5c41.8,41.1,90.4,73.6,144.4,96.1c56,23,115.5,34.9,176.8,34.9
		s120.9-11.6,177-35.1c54.1-22.5,102.6-54.9,144.4-96.1s74.6-89.1,97.4-142.5C442.5,119,454.5,60.2,454.5-0.2s-12-119.1-35.7-174.4
		C396-228,363.1-276,321.4-317.2c-41.8-41.1-90.4-73.6-144.4-96.1C120.8-436.6,61.2-448.4,0-448.4z"/>
</g>
<path class="st0" d="M0,251.1c-84.9,0-165,32.7-225,92c-21,20.8-38.9,44.1-53,69l8.4,4.8c13.8-24.3,31.1-47,51.6-67
	c58.3-57.5,135.6-89.1,218.3-89.1s160,31.5,218.3,89.1c20.7,20.4,37.9,42.9,51.6,67.5l8.4-4.8c-14.2-25.1-32-48.4-53.2-69.4
	C164.9,283.7,85.1,251.1,0,251.1z"/>
<path class="st0" d="M208.4,359.7C152.6,304.7,78.7,274.4,0,274.4s-152.6,30.3-208.4,85.1c-19.6,19.5-36,41-49.2,64.2l42.3,24.1
	C-173.3,373.1-92.6,322.5,0,322.5s173.5,50.8,215.3,125.7l42.3-24.1C244.6,400.8,228,379.2,208.4,359.7z"/>
<path class="st0" d="M-214.5-117.7c42.6-72.7,53.9-157.4,31.9-238.5c-7.8-28.5-19.1-55.2-34-79.9l-8.4,4.8
	c14.4,23.8,25.6,50,33,77.6c21.3,78.5,10.5,160.8-30.9,231.2S-330.7-1.5-410.3,19.4c-28,7.5-56.6,10.9-84.9,10.5v9.6
	c29.2,0.4,58.5-3.2,87.5-10.9C-325.7,7-257.1-45-214.5-117.7z"/>
<path class="st0" d="M-414,6c76-20,139.6-68.1,178.9-135.6s49.8-145.5,29.4-220.5c-7.1-26.5-17.8-51.3-31.7-74.1l-42.3,24.1
	c44.5,73.2,48.7,167.5,2.4,246.6C-323.6-74-408.5-30.6-495.2-32v48.2C-468.2,16.5-440.9,13.2-414,6z"/>
<path class="st0" d="M215.1-123.5c-42.6-72.7-53.9-157.4-31.9-238.5c7.8-28.5,19.1-55.2,34-79.9l8.4,4.8c-14.4,23.8-25.6,50-33,77.6
	c-21.3,78.5-10.5,160.8,30.9,231.2S331.4-7.6,410.9,13.6c28,7.5,56.6,10.9,84.9,10.5v9.6c-29.2,0.4-58.5-3.2-87.5-10.9
	C326.3,1.2,257.7-50.9,215.1-123.5z"/>
<path class="st0" d="M414.6,0c-76-20-139.5-68.1-179-135.3s-49.8-145.5-29.4-220.5c7.1-26.5,17.8-51.3,31.7-74.1l42.3,24.1
	c-44.5,73.2-48.7,167.5-2.4,246.6S409.1-36.6,495.8-38v48.1C468.8,10.5,441.5,7.2,414.6,0z"/>
</svg>
