<?xml version="1.0" encoding="utf-8"?>
<!-- Generator: Adobe Illustrator 25.2.1, SVG Export Plug-In . SVG Version: 6.00 Build 0)  -->
<svg version="1.1" id="Layer_1" xmlns="http://www.w3.org/2000/svg" xmlns:xlink="http://www.w3.org/1999/xlink" x="0px" y="0px"
	 viewBox="0 0 564.6 566.9" style="enable-background:new 0 0 564.6 566.9;" xml:space="preserve">
<style type="text/css">
	.st0{fill:#0483A5;}
</style>
<g>
	<path class="st0" d="M0.3,609.3L-2,608L-526.8,305v-608.7L0.3-608l2.3,1.4l524.8,302.9V305L0.3,609.3z M-517.5,299.6L0.3,598.5
		l517.8-298.9v-597.9L0.3-597.2l-517.8,298.9V299.6z"/>
</g>
<g>
	<path class="st0" d="M-0.1,488c-65.9,0-129.9-12.9-190.1-38.4c-58.1-24.6-110.4-59.8-155.2-104.6c-44.8-44.8-80-97.1-104.6-155.2
		c-25.5-60.2-38.4-124.1-38.4-190.1s12.9-129.9,38.4-190.1c24.6-58.1,59.8-110.4,104.6-155.2c44.8-44.8,97.1-80,155.2-104.6
		c60.2-25.5,124.1-38.4,190.1-38.4s129.9,12.9,190.1,38.4c58.1,24.6,110.4,59.8,155.2,104.6s80,97.1,104.6,155.2
		c25.5,60.2,38.4,124.1,38.4,190.1s-12.9,129.9-38.4,190.1C425.2,248,390,300.2,345.2,345c-44.8,44.8-97.1,80-155.2,104.6
		C129.8,475.1,65.9,488-0.1,488z M-0.1-479.1c-64.7,0-127.4,12.7-186.4,37.6c-57,24.1-108.2,58.7-152.2,102.6
		s-78.5,95.2-102.6,152.2c-25,59-37.6,121.8-37.6,186.4s12.7,127.4,37.6,186.4c24.1,57,58.7,108.2,102.6,152.2
		c44,44,95.2,78.5,152.2,102.6c59,25,121.8,37.6,186.4,37.6S127.3,466,186.4,441c57-24.1,108.2-58.7,152.2-102.6
		c44-44,78.5-95.2,102.6-152.2c25-59,37.6-121.8,37.6-186.4s-12.7-127.4-37.6-186.4c-24.1-57-58.7-108.2-102.6-152.2
		c-44-44-95.2-78.5-152.2-102.6C127.3-466.5,64.6-479.1-0.1-479.1z"/>
</g>
<path class="st0" d="M-0.1,268.2c-89.6,0-173.9,34.9-237.3,98.3c-22.2,22.2-41,47-55.9,73.7l8.9,5.1c14.5-26,32.7-50.1,54.3-71.6
	c61.4-61.4,143.1-95.3,230.1-95.3s168.6,33.8,230.1,95.3c21.7,21.7,39.9,45.9,54.4,72l8.9-5.1c-15-26.8-33.7-51.7-56.1-74.1
	C173.9,303.1,89.6,268.2-0.1,268.2z"/>
<path class="st0" d="M219.5,384.3c-58.6-58.8-136.6-91.1-219.6-91.1s-160.9,32.3-219.7,90.9c-20.7,20.7-38,43.8-51.8,68.6l44.6,25.7
	c44.2-79.7,129.3-133.9,226.9-133.9c97.7,0,182.9,54.3,227,134.2l44.6-25.7C257.8,428.2,240.3,405.1,219.5,384.3z"/>
<path class="st0" d="M-226-125.8c44.8-77.6,56.8-168.1,33.6-254.7c-8.2-30.4-20.2-59-35.9-85.3l-8.9,5.1
	c15.2,25.5,27,53.4,34.9,82.9c22.5,83.9,11,171.7-32.5,246.9S-348.6-1.7-432.6,20.7c-29.6,8-59.7,11.6-89.5,11.1v10.3
	c30.8,0.5,61.7-3.4,92.2-11.6C-343.3,7.4-271-48.1-226-125.8z"/>
<path class="st0" d="M-436.5,6.4c80.2-21.4,147.1-72.9,188.5-144.8s52.5-155.5,31-235.7c-7.6-28.2-18.8-54.8-33.5-79.2l-44.6,25.7
	c46.9,78.2,51.4,178.9,2.6,263.4C-341.1-79.3-430.7-32.8-522.1-34.5V17C-493.6,17.6-464.8,14.1-436.5,6.4z"/>
<path class="st0" d="M226.8-132c-44.8-77.6-56.8-168.1-33.6-254.7c8.2-30.4,20.2-59,35.9-85.3l8.9,5.1c-15.2,25.5-27,53.4-34.9,82.9
	c-22.5,83.9-11,171.7,32.5,246.9S349.3-8.1,433.2,14.4c29.6,8,59.7,11.6,89.5,11.1v10.3c-30.8,0.5-61.7-3.4-92.2-11.6
	C343.9,1.2,271.6-54.4,226.8-132z"/>
<path class="st0" d="M437.1,0.1C356.9-21.3,290-72.7,248.4-144.5s-52.5-155.5-31-235.7c7.6-28.2,18.8-54.8,33.5-79.2l44.6,25.7
	c-46.9,78.2-51.4,178.9-2.6,263.4C341.8-85.7,431.3-39,522.7-40.7v51.5C494.2,11.2,465.4,7.7,437.1,0.1z"/>
</svg>
