<?xml version="1.0" encoding="utf-8"?>
<!-- Generator: Adobe Illustrator 25.2.0, SVG Export Plug-In . SVG Version: 6.00 Build 0)  -->
<svg version="1.1" id="Layer_1" xmlns="http://www.w3.org/2000/svg" xmlns:xlink="http://www.w3.org/1999/xlink" x="0px" y="0px"
	 viewBox="0 0 564.6 566.9" style="enable-background:new 0 0 564.6 566.9;" xml:space="preserve">
<style type="text/css">
	.st0{fill:#0483A5;}
</style>
<g>
	<path class="st0" d="M0,450l-1.7-1l-387.9-224v-450L0-450l1.7,1l387.9,224v450L0,450z M-382.7,221.1L0,442.1l382.7-221V-221L0-442
		l-382.7,221V221.1z"/>
</g>
<g>
	<path class="st0" d="M-0.2,360.4c-48.7,0-96-9.5-140.5-28.4c-43-18.2-81.6-44.2-114.7-77.4s-59.1-71.7-77.3-114.7
		c-18.9-44.5-28.4-91.8-28.4-140.5s9.5-96.1,28.4-140.5c18.2-43,44.2-81.6,77.3-114.7s71.7-59.1,114.7-77.4
		c44.4-18.9,91.8-28.4,140.5-28.4s96,9.5,140.5,28.4c43,18.2,81.6,44.2,114.7,77.4s59.1,71.7,77.3,114.7
		c18.9,44.5,28.4,91.8,28.4,140.5s-9.5,96.1-28.4,140.5c-18.2,43-44.2,81.6-77.3,114.7s-71.7,59.1-114.7,77.4
		C95.8,350.9,48.5,360.4-0.2,360.4z M-0.2-354.6c-47.8,0-94.1,9.4-137.8,27.9c-42.2,17.8-80,43.3-112.5,75.9s-58.1,70.4-75.9,112.6
		c-18.4,43.6-27.8,90-27.8,137.8s9.4,94.1,27.8,137.8c17.8,42.2,43.3,80,75.9,112.6s70.4,58.1,112.5,75.9
		c43.6,18.5,90,27.9,137.8,27.9s94.1-9.4,137.8-27.9c42.2-17.8,80-43.3,112.5-75.9s58.1-70.4,75.9-112.6
		c18.4-43.7,27.8-90.2,27.8-138s-9.4-94.2-28-137.9c-17.8-42.2-43.3-80-75.9-112.6s-70.4-58.1-112.5-75.9
		C93.8-345.3,47.5-354.6-0.2-354.6z"/>
</g>
<path class="st0" d="M-0.2,197.8c-66.2,0-128.6,25.8-175.4,72.7c-16.4,16.4-30.3,34.8-41.4,54.5l6.5,3.8c10.8-19.2,24.2-37,40.1-53
	c45.4-45.4,105.8-70.4,170.1-70.4s124.7,25,170.1,70.4c16,16,29.5,33.9,40.2,53.2l6.5-3.8c-11.1-19.8-24.9-38.3-41.5-54.8
	C128.3,223.6,66,197.8-0.2,197.8z"/>
<path class="st0" d="M162,283.7c-43.3-43.4-101-67.3-162.3-67.3s-118.9,23.8-162.3,67.2c-15.3,15.4-28.1,32.3-38.3,50.7l33,19
	c32.7-58.9,95.6-99,167.8-99s135.2,40.1,167.8,99.3l33-19C190.3,316.1,177.4,299,162,283.7z"/>
<path class="st0" d="M-167.3-93.4c33.1-57.4,41.9-124.2,24.9-188.3c-6.1-22.5-15-43.6-26.6-63l-6.5,3.8
	c11.2,18.9,19.9,39.4,25.8,61.2c16.6,62,8.1,126.9-24.1,182.6s-84,95.4-146.1,112c-21.9,5.9-44.1,8.6-66.2,8.2v7.6
	c22.8,0.3,45.6-2.5,68.2-8.6C-253.9,5-200.5-36-167.3-93.4z"/>
<path class="st0" d="M-322.8,4.4c59.2-15.8,108.7-53.9,139.3-107.1s38.8-115,22.9-174.2c-5.6-20.9-13.9-40.5-24.7-58.6l-33,19
	c34.7,57.8,37.9,132.3,1.9,194.7C-252.3-59.1-318.6-24.6-386.2-26v38.1C-365.1,12.5-343.8,10-322.8,4.4z"/>
<path class="st0" d="M167.4-98c-33.1-57.4-41.9-124.2-24.9-188.3c6.1-22.5,15-43.6,26.6-63l6.5,3.8c-11.2,18.9-19.9,39.4-25.8,61.2
	c-16.6,62-8.1,126.9,24.1,182.6s84,95.3,146,111.9c21.9,5.9,44.1,8.6,66.2,8.2V26c-22.8,0.3-45.6-2.5-68.2-8.6
	C253.9,0.5,200.5-40.7,167.4-98z"/>
<path class="st0" d="M322.8-0.3c-59.2-15.8-108.7-53.8-139.5-106.9s-38.8-115-22.9-174.2c5.6-20.9,13.9-40.5,24.7-58.6l33,19
	c-34.7,57.8-37.9,132.3-1.9,194.7c36.2,62.6,102.3,97.1,169.9,95.8V7.6C365.1,7.9,343.8,5.3,322.8-0.3z"/>
<g>
	<path class="st0" d="M-0.2,159.4c-88.2,0-160-71.7-160-160s71.7-160,160-160s160,71.7,160,160S88,159.4-0.2,159.4z M-0.2-153.6
		c-84.3,0-153,68.7-153,153s68.6,153,153,153s153-68.6,153-153S84.1-153.6-0.2-153.6z"/>
</g>
<g>
	<path class="st0" d="M-0.2,136.7c-75.7,0-137.2-61.5-137.2-137.2S-76-137.8-0.2-137.8S136.9-76.2,136.9-0.5S75.4,136.7-0.2,136.7z
		 M-0.2-130.8c-71.8,0-130.3,58.5-130.3,130.3S-72.1,129.7-0.2,129.7S130.1,71.3,130.1-0.5S71.5-130.8-0.2-130.8z"/>
</g>
<g>
	
		<rect x="-405.5" y="147.2" transform="matrix(0.866 -0.5001 0.5001 0.866 -110.2837 -110.2084)" class="st0" width="289.5" height="6.9"/>
</g>
<g>
	
		<rect x="116.2" y="-154.1" transform="matrix(0.8659 -0.5002 0.5002 0.8659 110.3404 110.2806)" class="st0" width="289.4" height="6.9"/>
</g>
<g>
	
		<rect x="-264.5" y="-295.2" transform="matrix(0.5 -0.866 0.866 0.5 8.896290e-03 -301.4652)" class="st0" width="6.9" height="288.9"/>
</g>
<g>
	
		<rect x="257.4" y="5.9" transform="matrix(0.5 -0.866 0.866 0.5 -2.062052e-02 301.2293)" class="st0" width="6.9" height="289.4"/>
</g>
<g>
	<rect x="-3.4" y="156" class="st0" width="6.9" height="290"/>
</g>
<g>
	<rect x="-3.4" y="-445.9" class="st0" width="6.9" height="288.9"/>
</g>
</svg>
