<?xml version="1.0" encoding="utf-8"?>
<!-- Generator: Adobe Illustrator 25.2.0, SVG Export Plug-In . SVG Version: 6.00 Build 0)  -->
<svg version="1.1" id="Layer_1" xmlns="http://www.w3.org/2000/svg" xmlns:xlink="http://www.w3.org/1999/xlink" x="0px" y="0px"
	 viewBox="0 0 564.6 566.9" style="enable-background:new 0 0 564.6 566.9;" xml:space="preserve">
<style type="text/css">
	.st0{fill:#0483A5;}
</style>
<g>
	<path class="st0" d="M0,577.5l-2.2-1.3L-500,288.7v-577.5L0-577.5l2.2,1.3L500-288.7v577.5L0,577.5z M-491.1,283.7L0,567.3
		l491.1-283.6v-567.3L0-567.2l-491.1,283.6V283.7z"/>
</g>
<g>
	<path class="st0" d="M-0.3,462.5c-62.5,0-123.2-12.2-180.3-36.4c-55.2-23.3-104.7-56.7-147.2-99.3s-75.9-92-99.2-147.2
		c-24.2-57.1-36.4-117.8-36.4-180.3s12.2-123.3,36.4-180.3c23.3-55.2,56.7-104.7,99.2-147.2s92-75.9,147.2-99.3
		C-123.6-451.8-62.8-464-0.3-464s123.2,12.2,180.3,36.4c55.2,23.3,104.7,56.7,147.2,99.3s75.9,92,99.2,147.2
		C450.6-124,462.8-63.3,462.8-0.8s-12.2,123.3-36.4,180.3c-23.3,55.2-56.7,104.7-99.2,147.2c-42.5,42.5-92,75.9-147.2,99.3
		C122.9,450.3,62.2,462.5-0.3,462.5z M-0.3-455.1c-61.3,0-120.8,12-176.8,35.8c-54.1,22.9-102.7,55.6-144.4,97.4
		s-74.5,90.3-97.4,144.5c-23.6,56-35.7,115.5-35.7,176.9s12,120.8,35.7,176.9c22.9,54.1,55.6,102.7,97.4,144.5s90.3,74.5,144.4,97.4
		c56,23.7,115.5,35.8,176.8,35.8s120.8-12,176.8-35.8c54.1-22.9,102.7-55.6,144.4-97.4s74.5-90.3,97.4-144.5
		C441.9,120.3,454,60.7,454-0.7s-12.1-120.9-35.9-177c-22.9-54.1-55.6-102.7-97.4-144.5s-90.3-74.5-144.4-97.4
		C120.4-443.1,60.9-455.1-0.3-455.1z"/>
</g>
<path class="st0" d="M-0.3,253.9c-85,0-165,33.1-225.1,93.3c-21.1,21.1-38.9,44.6-53.1,70l8.4,4.9c13.8-24.7,31-47.5,51.5-68
	c58.3-58.3,135.8-90.4,218.3-90.4s160,32.1,218.3,90.4c20.5,20.5,37.9,43.5,51.6,68.3l8.4-4.9c-14.2-25.4-32-49.1-53.2-70.3
	C164.6,287,84.7,253.9-0.3,253.9z"/>
<path class="st0" d="M207.9,364.1c-55.6-55.7-129.6-86.4-208.3-86.4S-153,308.3-208.7,364c-19.6,19.7-36.1,41.5-49.2,65.1l42.3,24.4
	c42-75.6,122.7-127,215.3-127c92.7,0,173.5,51.5,215.4,127.4l42.3-24.4C244.2,405.7,227.7,383.7,207.9,364.1z"/>
<path class="st0" d="M-214.7-119.9c42.5-73.6,53.8-159.4,31.9-241.6c-7.8-28.9-19.2-56-34.1-80.9l-8.4,4.9
	c14.4,24.2,25.6,50.6,33.1,78.6c21.3,79.6,10.4,162.9-30.9,234.3S-330.9-2.2-410.6,19.1c-28.1,7.6-56.6,11-84.9,10.5v9.8
	c29.2,0.4,58.5-3.2,87.5-11C-325.9,6.4-257.3-46.2-214.7-119.9z"/>
<path class="st0" d="M-414.3,5.6c76-20.3,139.5-69.2,178.8-137.4s49.8-147.6,29.4-223.6c-7.2-26.8-17.9-52-31.7-75.2l-42.3,24.4
	c44.5,74.2,48.7,169.8,2.4,249.9C-323.8-75.8-408.9-31.6-495.6-33.3v48.9C-468.5,16.1-441.2,12.8-414.3,5.6z"/>
<path class="st0" d="M214.8-125.8c-42.5-73.6-53.8-159.4-31.9-241.6c7.8-28.9,19.2-56,34.1-80.9l8.4,4.9
	c-14.4,24.2-25.6,50.6-33.1,78.6c-21.3,79.6-10.4,162.9,30.9,234.3S331-8.2,410.6,13.1c28.1,7.6,56.6,11,84.9,10.5v9.8
	c-29.2,0.4-58.5-3.2-87.5-11C325.9,0.6,257.3-52.2,214.8-125.8z"/>
<path class="st0" d="M414.3-0.4c-76-20.3-139.5-69.1-179-137.2s-49.8-147.6-29.4-223.6c7.2-26.8,17.9-52,31.7-75.2l42.3,24.4
	c-44.5,74.2-48.7,169.8-2.4,249.9c46.4,80.3,131.3,124.6,218,122.9V9.7C468.5,10.1,441.2,6.8,414.3-0.4z"/>
<g>
	<path class="st0" d="M-0.3,204.6c-113.2,0-205.3-92-205.3-205.3S-113.6-206-0.3-206s205.3,92,205.3,205.3S112.9,204.6-0.3,204.6z
		 M-0.3-197.1c-108.2,0-196.4,88.2-196.4,196.4s88.1,196.4,196.4,196.4S196,107.6,196-0.7S107.9-197.1-0.3-197.1z"/>
</g>
<g>
	<path class="st0" d="M-0.3,175.4c-97.1,0-176.1-78.9-176.1-176.1S-97.5-176.8-0.3-176.8S175.7-97.8,175.7-0.7S96.8,175.4-0.3,175.4
		z M-0.3-167.9c-92.1,0-167.2,75.1-167.2,167.2s75,167.2,167.2,167.2S166.9,91.5,166.9-0.7S91.8-167.9-0.3-167.9z"/>
</g>
<g>
	
		<rect x="-520.4" y="188.9" transform="matrix(0.866 -0.5001 0.5001 0.866 -141.5397 -141.4757)" class="st0" width="371.5" height="8.9"/>
</g>
<g>
	
		<rect x="149.1" y="-197.7" transform="matrix(0.8659 -0.5002 0.5002 0.8659 141.5261 141.5532)" class="st0" width="371.4" height="8.9"/>
</g>
<g>
	
		<rect x="-339.5" y="-378.8" transform="matrix(0.5 -0.866 0.866 0.5 -1.064579e-02 -386.8723)" class="st0" width="8.9" height="370.8"/>
</g>
<g>
	
		<rect x="330.4" y="7.6" transform="matrix(0.5 -0.866 0.866 0.5 -1.908367e-02 386.5949)" class="st0" width="8.9" height="371.4"/>
</g>
<g>
	<rect x="-4.4" y="200.2" class="st0" width="8.9" height="372.2"/>
</g>
<g>
	<rect x="-4.4" y="-572.3" class="st0" width="8.9" height="370.8"/>
</g>
</svg>
