<?xml version="1.0" encoding="utf-8"?>
<!-- Generator: Adobe Illustrator 25.2.1, SVG Export Plug-In . SVG Version: 6.00 Build 0)  -->
<svg version="1.1" id="Layer_1" xmlns="http://www.w3.org/2000/svg" xmlns:xlink="http://www.w3.org/1999/xlink" x="0px" y="0px"
	 viewBox="0 0 564.6 566.9" style="enable-background:new 0 0 564.6 566.9;" xml:space="preserve">
<style type="text/css">
	.st0{fill:#0483A5;}
</style>
<g>
	<path class="st0" d="M0.3,520.7l-2-1.2l-448.4-258.9v-520.1l450.4-260l2,1.2l448.4,258.9v520.1L0.3,520.7z M-442.1,256.1L0.3,511.5
		l442.4-255.4v-510.9L0.3-510.2l-442.4,255.4V256.1z"/>
</g>
<g>
	<path class="st0" d="M0,417.1c-56.3,0-111-11-162.4-32.8c-49.7-21-94.3-51.1-132.6-89.4c-38.3-38.3-68.4-82.9-89.4-132.6
		c-21.8-51.4-32.8-106.1-32.8-162.4s11-111,32.8-162.4c21-49.7,51.1-94.3,89.4-132.6c38.3-38.3,82.9-68.4,132.6-89.4
		C-111-406.3-56.3-417.3,0-417.3s111,11,162.4,32.8c49.7,21,94.3,51.1,132.6,89.4s68.4,82.9,89.4,132.6
		c21.8,51.4,32.8,106.1,32.8,162.4s-11,111-32.8,162.4c-21,49.7-51.1,94.3-89.4,132.6c-38.3,38.3-82.9,68.4-132.6,89.4
		C111,406.1,56.3,417.1,0,417.1z M0-409.3c-55.2,0-108.8,10.8-159.3,32.2c-48.7,20.6-92.5,50.1-130.1,87.7s-67.1,81.3-87.7,130.1
		c-21.3,50.4-32.2,104-32.2,159.3s10.8,108.8,32.2,159.3c20.6,48.7,50.1,92.5,87.7,130.1c37.6,37.6,81.3,67.1,130.1,87.7
		c50.4,21.3,104,32.2,159.3,32.2s108.8-10.8,159.3-32.2c48.7-20.6,92.5-50.1,130.1-87.7c37.6-37.6,67.1-81.3,87.7-130.1
		c21.3-50.4,32.2-104,32.2-159.3S398.4-108.9,377-159.4c-20.6-48.7-50.1-92.5-87.7-130.1c-37.6-37.6-81.3-67.1-130.1-87.7
		C108.8-398.5,55.2-409.3,0-409.3z"/>
</g>
<path class="st0" d="M0,229.3c-76.6,0-148.6,29.8-202.8,84c-19,19-35,40.2-47.8,63l7.6,4.4c12.4-22.2,27.9-42.8,46.4-61.2
	C-144.1,267-74.3,238.1,0,238.1s144.1,28.9,196.6,81.4c18.5,18.5,34.1,39.2,46.5,61.5l7.6-4.4c-12.8-22.9-28.8-44.2-47.9-63.3
	C148.6,259.1,76.6,229.3,0,229.3z"/>
<path class="st0" d="M187.6,328.5C137.5,278.3,70.9,250.7,0,250.7s-137.5,27.6-187.7,77.7c-17.7,17.7-32.5,37.4-44.3,58.6l38.1,22
	C-156.1,340.9-83.4,294.6,0,294.6c83.5,0,156.3,46.4,194,114.7l38.1-22C220.3,366,205.4,346.2,187.6,328.5z"/>
<path class="st0" d="M-193.1-107.4c38.3-66.3,48.5-143.6,28.7-217.6c-7-26-17.3-50.4-30.7-72.9l-7.6,4.4
	c13,21.8,23.1,45.6,29.8,70.8c19.2,71.7,9.4,146.7-27.8,211S-297.8-1.4-369.6,17.8c-25.3,6.8-51,9.9-76.5,9.5v8.8
	c26.3,0.4,52.7-2.9,78.8-9.9C-293.3,6.4-231.5-41-193.1-107.4z"/>
<path class="st0" d="M-372.9,5.6c68.5-18.3,125.7-62.3,161.1-123.7s44.9-132.9,26.5-201.4c-6.5-24.1-16.1-46.8-28.6-67.7l-38.1,22
	c40.1,66.8,43.9,152.9,2.2,225.1C-291.4-67.7-368-27.9-446.1-29.4v44C-421.7,15.1-397.1,12.1-372.9,5.6z"/>
<path class="st0" d="M193.8-112.7c-38.3-66.3-48.5-143.6-28.7-217.6c7-26,17.3-50.4,30.7-72.9l7.6,4.4c-13,21.8-23.1,45.6-29.8,70.8
	c-19.2,71.7-9.4,146.7,27.8,211S298.5-6.8,370.2,12.4c25.3,6.8,51,9.9,76.5,9.5v8.8c-26.3,0.4-52.7-2.9-78.8-9.9
	C293.9,1.1,232.1-46.4,193.8-112.7z"/>
<path class="st0" d="M373.5,0.2C305-18.1,247.8-62,212.3-123.4s-44.9-132.9-26.5-201.4c6.5-24.1,16.1-46.8,28.6-67.7l38.1,22
	c-40.1,66.8-43.9,152.9-2.2,225.1C292.1-73.1,368.6-33.2,446.7-34.7v44C422.3,9.7,397.7,6.7,373.5,0.2z"/>
<g>
	<path class="st0" d="M0,184.9C-102,184.9-184.9,102-184.9,0S-102-184.9,0-184.9S184.9-102,184.9,0S102,184.9,0,184.9z M0-176.9
		c-97.5,0-176.9,79.4-176.9,176.9S-97.5,176.9,0,176.9S176.9,97.5,176.9,0S97.5-176.9,0-176.9z"/>
</g>
<g>
	<path class="st0" d="M0,158.6c-87.5,0-158.6-71.1-158.6-158.6S-87.5-158.6,0-158.6S158.6-87.5,158.6,0S87.5,158.6,0,158.6z
		 M0-150.6C-83-150.6-150.6-83-150.6,0S-83,150.6,0,150.6S150.6,83,150.6,0S83-150.6,0-150.6z"/>
</g>
<g>
	<rect x="-468.5" y="170.7" transform="matrix(0.866 -0.5 0.5 0.866 -127.7186 -127.1824)" class="st0" width="334.6" height="8"/>
</g>
<g>
	
		<rect x="134.6" y="-177.4" transform="matrix(0.866 -0.5001 0.5001 0.866 127.2059 127.7107)" class="st0" width="334.5" height="8"/>
</g>
<g>
	
		<rect x="-305.5" y="-340.6" transform="matrix(0.5001 -0.866 0.866 0.5001 -0.3943 -347.8831)" class="st0" width="8" height="334"/>
</g>
<g>
	<rect x="297.9" y="7.5" transform="matrix(0.5001 -0.866 0.866 0.5001 -0.4314 348.7527)" class="st0" width="8" height="334.5"/>
</g>
<g>
	<rect x="-3.7" y="180.9" class="st0" width="8" height="335.2"/>
</g>
<g>
	<rect x="-3.7" y="-514.8" class="st0" width="8" height="333.9"/>
</g>
</svg>
