<?xml version="1.0" encoding="utf-8"?>
<!-- Generator: Adobe Illustrator 25.2.1, SVG Export Plug-In . SVG Version: 6.00 Build 0)  -->
<svg version="1.1" id="Layer_1" xmlns="http://www.w3.org/2000/svg" xmlns:xlink="http://www.w3.org/1999/xlink" x="0px" y="0px"
	 viewBox="0 0 564.6 566.9" style="enable-background:new 0 0 564.6 566.9;" xml:space="preserve">
<style type="text/css">
	.st0{fill:#00AEEF;}
</style>
<g>
	<path class="st0" d="M0,220c-121.3,0-220-98.7-220-220s98.7-220,220-220S220-121.3,220,0S121.3,220,0,220z M0-193.7
		c-106.9,0-193.7,87-193.7,193.7c0,106.9,87,193.7,193.7,193.7S193.7,106.9,193.7,0S106.9-193.7,0-193.7z"/>
</g>
<g>
	<path class="st0" d="M0,174.5c-96.2,0-174.5-78.3-174.5-174.5S-96.2-174.5,0-174.5S174.5-96.2,174.5,0S96.2,174.5,0,174.5z
		 M0-126.9C-70-126.9-126.9-70-126.9,0S-70,126.9,0,126.9S126.9,70,126.9,0S70-126.9,0-126.9z"/>
</g>
</svg>
