<?xml version="1.0" encoding="utf-8"?>
<!-- Generator: Adobe Illustrator 25.2.0, SVG Export Plug-In . SVG Version: 6.00 Build 0)  -->
<svg version="1.1" id="Layer_1" xmlns="http://www.w3.org/2000/svg" xmlns:xlink="http://www.w3.org/1999/xlink" x="0px" y="0px"
	 viewBox="0 0 564.6 566.9" style="enable-background:new 0 0 564.6 566.9;" xml:space="preserve">
<style type="text/css">
	.st0{fill:#00AEEF;}
</style>
<g>
	<path class="st0" d="M0,200c-110.3,0-200-89.7-200-200s89.7-200,200-200S200-110.3,200,0S110.3,200,0,200z M0-190.9
		c-105.4,0-190.9,85.7-190.9,190.9c0,105.4,85.7,190.9,190.9,190.9S190.9,105.4,190.9,0S105.4-190.9,0-190.9z"/>
</g>
<g>
	<path class="st0" d="M0,158.6c-87.5,0-158.6-71.2-158.6-158.6S-87.5-158.6,0-158.6S158.6-87.5,158.6,0S87.5,158.6,0,158.6z
		 M0-137.3c-75.7,0-137.3,61.5-137.3,137.3S-75.7,137.3,0,137.3S137.3,75.7,137.3,0S75.7-137.3,0-137.3z"/>
</g>
</svg>
