<?xml version="1.0" encoding="utf-8"?>
<!-- Generator: Adobe Illustrator 25.2.0, SVG Export Plug-In . SVG Version: 6.00 Build 0)  -->
<svg version="1.1" id="Layer_1" xmlns="http://www.w3.org/2000/svg" xmlns:xlink="http://www.w3.org/1999/xlink" x="0px" y="0px"
	 viewBox="0 0 564.6 566.9" style="enable-background:new 0 0 564.6 566.9;" xml:space="preserve">
<style type="text/css">
	.st0{fill:#00AEEF;}
</style>
<g>
	<path class="st0" d="M0,168c-92.7,0-168-75.3-168-168S-92.7-168,0-168S168-92.7,168,0S92.7,168,0,168z M0-160.4
		c-88.5,0-160.4,72-160.4,160.4c0,88.5,72,160.4,160.4,160.4S160.4,88.5,160.4,0S88.5-160.4,0-160.4z"/>
</g>
<g>
	<path class="st0" d="M0,133.2c-73.5,0-133.2-59.8-133.2-133.2S-73.5-133.2,0-133.2S133.2-73.5,133.2,0S73.5,133.2,0,133.2z
		 M0-115.3c-63.6,0-115.3,51.7-115.3,115.3S-63.6,115.3,0,115.3S115.3,63.6,115.3,0S63.6-115.3,0-115.3z"/>
</g>
</svg>
