<?xml version="1.0" encoding="utf-8"?>
<!-- Generator: Adobe Illustrator 25.2.0, SVG Export Plug-In . SVG Version: 6.00 Build 0)  -->
<svg version="1.1" id="Layer_1" xmlns="http://www.w3.org/2000/svg" xmlns:xlink="http://www.w3.org/1999/xlink" x="0px" y="0px"
	 viewBox="0 0 564.6 566.9" style="enable-background:new 0 0 564.6 566.9;" xml:space="preserve">
<style type="text/css">
	.st0{fill:#00AEEF;}
	.st1{fill:none;}
</style>
<g>
	<path class="st0" d="M254.6,146.2h-507.1L1-292.9L254.6,146.2z M-242.2,140.4h486.6L1-281.1L-242.2,140.4z"/>
	<path class="st0" d="M260.9,149.9h-519.6L1-300.1L260.9,149.9z M-236,136.7h474L1-273.8L-236,136.7z"/>
</g>
<g>
	<path class="st0" d="M1,292.6l-253.6-439.1h507.1L1,292.6z M-242.2-140.7L1,280.8l243.3-421.4L-242.2-140.7L-242.2-140.7z"/>
	<path class="st0" d="M1,299.9l-259.8-450.1h519.6L1,299.9z M-236-137L1,273.6L238-137H-236L-236-137z"/>
</g>
<g>
	<rect x="-167.5" y="-2.2" class="st0" width="47.4" height="5.9"/>
	<rect x="-171.1" y="-5.8" class="st0" width="54.6" height="13.1"/>
</g>
<g>
	<rect x="122.6" y="-2.2" class="st0" width="43" height="5.9"/>
	<rect x="119.1" y="-5.8" class="st0" width="50.2" height="13.1"/>
</g>
<g>
	<path class="st0" d="M0.1,295.5l-255.9-147.7v-295.5L0.1-295.5L256-147.7v295.5L0.1,295.5z M-249.9,144.3l250,144.2l250-144.3
		v-288.7L0.1-288.7l-250,144.2V144.3z"/>
	<path class="st0" d="M0.1,299.6l-259.5-149.7v-299.7L0.1-299.6l259.5,149.9v299.7L0.1,299.6z M-246.2,142.2L0.1,284.4l246.4-142.2
		v-284.5L0.1-284.5l-246.4,142.2V142.2z"/>
</g>
<g>
	<polygon class="st0" points="107.6,58.5 254.5,143.5 251.6,148.6 104.7,63.5 	"/>
	<polygon class="st0" points="252.9,153.5 99.7,64.9 106.3,53.6 259.5,142.1 	"/>
</g>
<g>
	<polyline class="st0" points="-245.9,-146.2 -104.8,-64.7 -107.5,-59.5 -248.9,-141 	"/>
	<polygon class="st0" points="-106.1,-54.4 -250.6,-137.9 -247.1,-144.1 -247.1,-144.1 -244.1,-149.3 -99.9,-66.1 	"/>
</g>
<g>
	<polygon class="st0" points="-254.3,143.5 -106.9,58.8 -104.8,64.4 -251.4,148.6 	"/>
	<polygon class="st0" points="-252.7,153.5 -259.3,142.1 -104.9,53.6 -100.3,66 	"/>
</g>
<g>
	<polygon class="st0" points="103,-62.1 251.6,-148.6 254.5,-143.5 106.9,-57.5 	"/>
	<polygon class="st0" points="106.2,-52.8 97.4,-63 252.9,-153.5 259.5,-142.1 	"/>
</g>
<g>
	<g>
		<path class="st0" d="M0.1,125.6c-69.3,0-125.6-56.3-125.6-125.6S-69.2-125.6,0.1-125.6S125.7-69.3,125.7,0S69.3,125.6,0.1,125.6z
			 M0.1-118c-65.1,0-118,52.9-118,118c0,65.1,52.9,118,118,118S118,65.1,118,0C118-65.1,65.1-118,0.1-118z"/>
		<path class="st0" d="M0.1,129.2c-71.3,0-129.3-58-129.3-129.3S-71.2-129.3,0.1-129.3S129.3-71.3,129.3,0S71.4,129.2,0.1,129.2z
			 M0.1-122C-67.1-122-122-67.3-122,0S-67.3,122,0.1,122s122-54.8,122-122S67.4-122,0.1-122z M0.1,121.5C-67,121.5-121.5,67-121.5,0
			S-67-121.6,0.1-121.6S121.7-67.1,121.7,0S67.1,121.5,0.1,121.5z M0.1-114.4C-62.9-114.4-114.3-63-114.3,0S-62.9,114.4,0.1,114.4
			S114.4,63,114.4,0S63.2-114.4,0.1-114.4z"/>
	</g>
</g>
<g>
	<line class="st1" x1="-106.3" y1="58.5" x2="-103.3" y2="63.5"/>
	
		<rect x="-108.4" y="58" transform="matrix(0.8634 -0.5045 0.5045 0.8634 -45.0774 -44.5348)" class="st0" width="7.2" height="5.9"/>
</g>
</svg>
