<?xml version="1.0" encoding="utf-8"?>
<!-- Generator: Adobe Illustrator 25.2.1, SVG Export Plug-In . SVG Version: 6.00 Build 0)  -->
<svg version="1.1" id="Layer_1" xmlns="http://www.w3.org/2000/svg" xmlns:xlink="http://www.w3.org/1999/xlink" x="0px" y="0px"
	 viewBox="0 0 564.6 566.9" style="enable-background:new 0 0 564.6 566.9;" xml:space="preserve">
<style type="text/css">
	.st0{fill:#00AEEF;}
</style>
<g>
	<path class="st0" d="M0,408c-225,0-408-183-408-408S-225-408,0-408S408-225,408,0S225,408,0,408z M0-396.9
		c-218.9,0-396.9,178.1-396.9,396.9c0,218.9,178.1,396.9,396.9,396.9S396.9,218.9,396.9,0C396.9-218.9,218.9-396.9,0-396.9z"/>
</g>
<g>
	<path class="st0" d="M0,457c-252,0-457-205-457-457S-252-457,0-457S457-252,457,0S252,457,0,457z M0-445.5
		c-245.6,0-445.5,199.8-445.5,445.5c0,245.6,199.8,445.5,445.5,445.5S445.5,245.6,445.5,0C445.5-245.6,245.6-445.5,0-445.5z"/>
</g>
<g>
	<path class="st0" d="M0,455.7c-16.1,0-29.2-13.1-29.2-29.2c0-16.1,13.1-29.2,29.2-29.2s29.2,13.1,29.2,29.2
		C29.2,442.6,16.1,455.7,0,455.7z M0,408.1c-10.2,0-18.5,8.3-18.5,18.5c0,10.2,8.3,18.5,18.5,18.5s18.5-8.3,18.5-18.5
		C18.5,416.3,10.2,408.1,0,408.1z"/>
</g>
<g>
	<path class="st0" d="M0-397.1c-16.1,0-29.2-13.1-29.2-29.2c0-16.1,13.1-29.2,29.2-29.2s29.2,13.1,29.2,29.2
		C29.2-410.2,16.1-397.1,0-397.1z M0-444.7c-10.2,0-18.5,8.3-18.5,18.5c0,10.2,8.3,18.5,18.5,18.5s18.5-8.3,18.5-18.5
		C18.5-436.4,10.2-444.7,0-444.7z"/>
</g>
<g>
	<path class="st0" d="M-456.6-0.9c0-16.1,13.1-29.2,29.2-29.2c16.1,0,29.2,13.1,29.2,29.2s-13.1,29.2-29.2,29.2
		C-443.5,28.3-456.6,15.2-456.6-0.9z M-408.9-0.9c0-10.2-8.3-18.5-18.5-18.5c-10.2,0-18.5,8.3-18.5,18.5s8.3,18.5,18.5,18.5
		C-417.2,17.6-408.9,9.3-408.9-0.9z"/>
</g>
<g>
	<path class="st0" d="M398.2-0.9c0-16.1,13.1-29.2,29.2-29.2c16.1,0,29.2,13.1,29.2,29.2s-13.1,29.2-29.2,29.2
		C411.3,28.3,398.2,15.2,398.2-0.9z M445.9-0.9c0-10.2-8.3-18.5-18.5-18.5c-10.2,0-18.5,8.3-18.5,18.5s8.3,18.5,18.5,18.5
		C437.6,17.6,445.9,9.3,445.9-0.9z"/>
</g>
</svg>
