<?xml version="1.0" encoding="utf-8"?>
<!-- Generator: Adobe Illustrator 25.2.0, SVG Export Plug-In . SVG Version: 6.00 Build 0)  -->
<svg version="1.1" id="Layer_1" xmlns="http://www.w3.org/2000/svg" xmlns:xlink="http://www.w3.org/1999/xlink" x="0px" y="0px"
	 viewBox="0 0 564.6 566.9" style="enable-background:new 0 0 564.6 566.9;" xml:space="preserve">
<style type="text/css">
	.st0{fill:#00AEEF;}
</style>
<g>
	<path class="st0" d="M0,401.8c-221.6,0-401.8-180.2-401.8-401.8S-221.6-401.8,0-401.8S401.8-221.6,401.8,0S221.6,401.8,0,401.8z
		 M0-390.8c-215.6,0-390.8,175.4-390.8,390.8c0,215.6,175.4,390.8,390.8,390.8S390.8,215.6,390.8,0S215.6-390.8,0-390.8z"/>
</g>
<g>
	<path class="st0" d="M0,450c-248.1,0-450-201.9-450-450S-248.1-450,0-450S450-248.1,450,0S248.1,450,0,450z M0-438.7
		c-241.8,0-438.7,196.7-438.7,438.7c0,241.8,196.7,438.7,438.7,438.7S438.7,241.8,438.7,0S241.8-438.7,0-438.7z"/>
</g>
<g>
	<path class="st0" d="M0,448.7c-15.8,0-28.7-12.9-28.7-28.7c0-15.8,12.9-28.7,28.7-28.7s28.7,12.9,28.7,28.7
		C28.7,435.8,15.8,448.7,0,448.7z M0,401.9c-10.1,0-18.2,8.2-18.2,18.2c0,10.1,8.2,18.2,18.2,18.2S18.2,430,18.2,420
		C18.2,410,10.1,401.9,0,401.9z"/>
</g>
<g>
	<path class="st0" d="M0-391c-15.8,0-28.7-12.9-28.7-28.7c0-15.8,12.9-28.7,28.7-28.7s28.7,12.9,28.7,28.7
		C28.7-403.9,15.8-391,0-391z M0-437.9c-10.1,0-18.2,8.2-18.2,18.2c0,10.1,8.2,18.2,18.2,18.2s18.2-8.2,18.2-18.2
		C18.2-429.7,10.1-437.9,0-437.9z"/>
</g>
<g>
	<path class="st0" d="M-449.6-0.9c0-15.8,12.9-28.7,28.7-28.7c15.8,0,28.7,12.9,28.7,28.7s-12.8,28.8-28.6,28.8
		C-436.7,27.9-449.6,14.9-449.6-0.9z M-402.7-0.9c0-10.1-8.2-18.2-18.2-18.2c-10,0-18.2,8.2-18.2,18.2s8.2,18.2,18.2,18.2
		C-410.9,17.4-402.7,9.2-402.7-0.9z"/>
</g>
<g>
	<path class="st0" d="M392.1-0.9c0-15.8,12.9-28.7,28.7-28.7c15.8,0,28.7,12.9,28.7,28.7s-12.9,28.8-28.7,28.8
		C405,27.9,392.1,14.9,392.1-0.9z M439.1-0.9c0-10.1-8.2-18.2-18.2-18.2c-10,0-18.3,8.2-18.3,18.2s8.2,18.2,18.2,18.2
		C430.8,17.3,439.1,9.2,439.1-0.9z"/>
</g>
</svg>
