<?xml version="1.0" encoding="utf-8"?>
<!-- Generator: Adobe Illustrator 25.2.0, SVG Export Plug-In . SVG Version: 6.00 Build 0)  -->
<svg version="1.1" id="Layer_1" xmlns="http://www.w3.org/2000/svg" xmlns:xlink="http://www.w3.org/1999/xlink" x="0px" y="0px"
	 viewBox="0 0 564.6 566.9" style="enable-background:new 0 0 564.6 566.9;" xml:space="preserve">
<style type="text/css">
	.st0{fill:#00AEEF;}
</style>
<g>
	<path class="st0" d="M0,446.4c-246.2,0-446.4-200.2-446.4-446.4S-246.2-446.4,0-446.4S446.4-246.2,446.4,0S246.2,446.4,0,446.4z
		 M0-434.2c-239.5,0-434.2,194.9-434.2,434.2c0,239.5,194.9,434.2,434.2,434.2S434.2,239.5,434.2,0S239.5-434.2,0-434.2z"/>
</g>
<g>
	<path class="st0" d="M0,500c-275.7,0-500-224.3-500-500S-275.7-500,0-500S500-275.7,500,0S275.7,500,0,500z M0-487.4
		c-268.7,0-487.4,218.6-487.4,487.4c0,268.7,218.6,487.4,487.4,487.4S487.4,268.7,487.4,0S268.7-487.4,0-487.4z"/>
</g>
<g>
	<path class="st0" d="M0,498.6c-17.6,0-31.9-14.3-31.9-31.9c0-17.6,14.3-31.9,31.9-31.9s31.9,14.3,31.9,31.9
		C31.9,484.2,17.6,498.6,0,498.6z M0,446.5c-11.2,0-20.2,9.1-20.2,20.2c0,11.2,9.1,20.2,20.2,20.2s20.2-9.1,20.2-20.2
		C20.2,455.5,11.2,446.5,0,446.5z"/>
</g>
<g>
	<path class="st0" d="M0-434.5c-17.6,0-31.9-14.3-31.9-31.9c0-17.6,14.3-31.9,31.9-31.9s31.9,14.3,31.9,31.9
		C31.9-448.8,17.6-434.5,0-434.5z M0-486.5c-11.2,0-20.2,9.1-20.2,20.2c0,11.2,9.1,20.2,20.2,20.2s20.2-9.1,20.2-20.2
		S11.2-486.5,0-486.5z"/>
</g>
<g>
	<path class="st0" d="M-499.6-1c0-17.6,14.3-31.9,31.9-31.9c17.6,0,31.9,14.3,31.9,31.9S-450,31-467.6,31
		C-485.2,31-499.6,16.6-499.6-1z M-447.4-1c0-11.2-9.1-20.2-20.2-20.2s-20.2,9.1-20.2,20.2s9.1,20.2,20.2,20.2
		C-456.5,19.3-447.4,10.2-447.4-1z"/>
</g>
<g>
	<path class="st0" d="M435.7-1c0-17.6,14.3-31.9,31.9-31.9c17.6,0,31.9,14.3,31.9,31.9S485.2,31,467.6,31C450,31,435.7,16.6,435.7-1
		z M487.9-1c0-11.2-9.1-20.2-20.2-20.2S447.4-12.1,447.4-1s9.1,20.2,20.2,20.2S487.9,10.2,487.9-1z"/>
</g>
</svg>
