<?xml version="1.0" encoding="utf-8"?>
<!-- Generator: Adobe Illustrator 25.2.0, SVG Export Plug-In . SVG Version: 6.00 Build 0)  -->
<svg version="1.1" id="Layer_1" xmlns="http://www.w3.org/2000/svg" xmlns:xlink="http://www.w3.org/1999/xlink" x="0px" y="0px"
	 viewBox="0 0 564.6 566.9" style="enable-background:new 0 0 564.6 566.9;" xml:space="preserve">
<style type="text/css">
	.st0{fill:#00AEEF;}
</style>
<g>
	<path class="st0" d="M0,178.6c-98.4,0-178.6-80.1-178.6-178.6S-98.4-178.6,0-178.6S178.6-98.4,178.6,0S98.4,178.6,0,178.6z
		 M0-173.7c-95.7,0-173.7,77.9-173.7,173.7S-95.7,173.7,0,173.7S173.7,95.7,173.7,0S95.7-173.7,0-173.7z"/>
</g>
<g>
	<path class="st0" d="M0,200c-110.3,0-200-89.7-200-200s89.7-200,200-200S200-110.3,200,0S110.3,200,0,200z M0-194.9
		c-107.5,0-194.9,87.4-194.9,194.9S-107.5,194.9,0,194.9S194.9,107.5,194.9,0S107.5-194.9,0-194.9z"/>
</g>
<g>
	<path class="st0" d="M0,199.4c-7,0-12.8-5.7-12.8-12.8c0-7,5.7-12.8,12.8-12.8s12.8,5.7,12.8,12.8C12.8,193.6,7,199.4,0,199.4z
		 M0,178.6c-4.4,0-8.1,3.6-8.1,8.1c0,4.4,3.6,8.1,8.1,8.1s8.1-3.6,8.1-8.1C8.1,182.2,4.4,178.6,0,178.6z"/>
</g>
<g>
	<path class="st0" d="M0-173.8c-7,0-12.8-5.7-12.8-12.8c0-7,5.7-12.8,12.8-12.8s12.8,5.7,12.8,12.8C12.8-179.4,7-173.8,0-173.8z
		 M0-194.6c-4.4,0-8.1,3.6-8.1,8.1c0,4.4,3.6,8.1,8.1,8.1s8.1-3.6,8.1-8.1C8.1-191,4.4-194.6,0-194.6z"/>
</g>
<g>
	<path class="st0" d="M-199.8-0.4c0-7,5.7-12.8,12.8-12.8c7,0,12.8,5.7,12.8,12.8s-5.7,12.8-12.8,12.8
		C-194.1,12.4-199.8,6.7-199.8-0.4z M-179-0.4c0-4.4-3.6-8.1-8.1-8.1c-4.4,0-8.1,3.6-8.1,8.1s3.6,8.1,8.1,8.1
		C-182.6,7.7-179,4.1-179-0.4z"/>
</g>
<g>
	<path class="st0" d="M174.3-0.4c0-7,5.7-12.8,12.8-12.8c7,0,12.8,5.7,12.8,12.8s-5.7,12.8-12.8,12.8
		C179.9,12.4,174.3,6.7,174.3-0.4z M195.1-0.4c0-4.4-3.6-8.1-8.1-8.1c-4.4,0-8.1,3.6-8.1,8.1s3.6,8.1,8.1,8.1
		C191.5,7.7,195.1,4.1,195.1-0.4z"/>
</g>
<rect x="-146.5" y="128.3" transform="matrix(0.7071 -0.7071 0.7071 0.7071 -131.5198 -55.9667)" class="st0" width="26.4" height="5"/>
<rect x="117.7" y="-135.7" transform="matrix(0.7071 -0.7071 0.7071 0.7071 132.4678 53.3986)" class="st0" width="26" height="5"/>
<rect x="-136.2" y="-143.8" transform="matrix(0.7071 -0.7071 0.7071 0.7071 53.595 -132.9503)" class="st0" width="5" height="25.2"/>
<rect x="128.9" y="120.4" transform="matrix(0.7071 -0.7071 0.7071 0.7071 -56.2239 132.1414)" class="st0" width="5" height="27"/>
</svg>
