<?xml version="1.0" encoding="utf-8"?>
<!-- Generator: Adobe Illustrator 25.2.1, SVG Export Plug-In . SVG Version: 6.00 Build 0)  -->
<svg version="1.1" id="Layer_1" xmlns="http://www.w3.org/2000/svg" xmlns:xlink="http://www.w3.org/1999/xlink" x="0px" y="0px"
	 viewBox="0 0 564.6 566.9" style="enable-background:new 0 0 564.6 566.9;" xml:space="preserve">
<style type="text/css">
	.st0{fill:#00AEEF;}
</style>
<g>
	<path class="st0" d="M0,283.9c-156.5,0-283.9-127.4-283.9-283.9S-156.5-283.9,0-283.9S283.9-156.5,283.9,0S156.5,283.9,0,283.9z
		 M0-276.2c-152.2,0-276.2,123.9-276.2,276.2S-152.2,276.2,0,276.2S276.2,152.2,276.2,0S152.2-276.2,0-276.2z"/>
</g>
<g>
	<path class="st0" d="M0,318c-175.4,0-318-142.6-318-318S-175.4-318,0-318S318-175.3,318,0S175.4,318,0,318z M0-309.9
		c-170.9,0-309.9,139-309.9,309.9S-170.9,309.9,0,309.9S309.9,170.9,309.9,0S170.9-309.9,0-309.9z"/>
</g>
<g>
	<path class="st0" d="M0,317.1c-11.2,0-20.4-9.1-20.4-20.4c0-11.2,9.1-20.4,20.4-20.4s20.4,9.1,20.4,20.4
		C20.4,307.9,11.2,317.1,0,317.1z M0,283.9c-7,0-12.9,5.8-12.9,12.9c0,7,5.8,12.9,12.9,12.9s12.9-5.8,12.9-12.9
		C12.9,289.7,7,283.9,0,283.9z"/>
</g>
<g>
	<path class="st0" d="M0-276.3c-11.2,0-20.4-9.1-20.4-20.4c0-11.2,9.1-20.4,20.4-20.4s20.4,9.1,20.4,20.4
		C20.4-285.3,11.2-276.3,0-276.3z M0-309.4c-7,0-12.9,5.8-12.9,12.9c0,7,5.8,12.9,12.9,12.9s12.9-5.8,12.9-12.9
		C12.9-303.7,7-309.4,0-309.4z"/>
</g>
<g>
	<path class="st0" d="M-317.7-0.6c0-11.2,9.1-20.4,20.4-20.4c11.2,0,20.4,9.1,20.4,20.4s-9.1,20.4-20.4,20.4
		C-308.6,19.7-317.7,10.6-317.7-0.6z M-284.6-0.6c0-7-5.8-12.9-12.9-12.9c-7,0-12.9,5.8-12.9,12.9s5.8,12.9,12.9,12.9
		C-290.3,12.2-284.6,6.5-284.6-0.6z"/>
</g>
<g>
	<path class="st0" d="M277.1-0.6c0-11.2,9.1-20.4,20.4-20.4c11.2,0,20.4,9.1,20.4,20.4s-9.1,20.4-20.4,20.4
		C286.1,19.7,277.1,10.6,277.1-0.6z M310.2-0.6c0-7-5.8-12.9-12.9-12.9c-7,0-12.9,5.8-12.9,12.9s5.8,12.9,12.9,12.9
		C304.5,12.2,310.2,6.5,310.2-0.6z"/>
</g>
<rect x="-216" y="187" transform="matrix(0.7071 0.7071 -0.7071 0.7071 84.9715 210.7961)" class="st0" width="8" height="41.9"/>
<rect x="203.8" y="-232.5" transform="matrix(0.7071 0.7071 -0.7071 0.7071 -88.8994 -208.9652)" class="st0" width="8" height="41.4"/>
<rect x="-216.6" y="-228.6" transform="matrix(0.7071 -0.7071 0.7071 0.7071 85.2316 -211.4241)" class="st0" width="8" height="40.1"/>
<rect x="204.9" y="191.5" transform="matrix(0.7071 -0.7071 0.7071 0.7071 -89.3691 210.0993)" class="st0" width="8" height="42.9"/>
</svg>
