<?xml version="1.0" encoding="utf-8"?>
<!-- Generator: Adobe Illustrator 25.2.0, SVG Export Plug-In . SVG Version: 6.00 Build 0)  -->
<svg version="1.1" id="Layer_1" xmlns="http://www.w3.org/2000/svg" xmlns:xlink="http://www.w3.org/1999/xlink" x="0px" y="0px"
	 viewBox="0 0 564.6 566.9" style="enable-background:new 0 0 564.6 566.9;" xml:space="preserve">
<style type="text/css">
	.st0{fill:#0483A5;}
</style>
<g>
	<path class="st0" d="M205.5,205.5h-411.2v-411.2h411.2V205.5L205.5,205.5z M-195.1,195h390.2v-390h-390.2V195z"/>
</g>
<g>
	<path class="st0" d="M-202.1-163.7c-21.2,0-38.4-17.2-38.4-38.4s17.3-38.4,38.4-38.4s38.4,17.2,38.4,38.4S-180.9-163.7-202.1-163.7
		z M-202.1-237.3c-19.4,0-35.2,15.8-35.2,35.2s15.8,35.2,35.2,35.2s35.2-15.8,35.2-35.2S-182.7-237.3-202.1-237.3z"/>
</g>
<ellipse class="st0" cx="-202.1" cy="-202.1" rx="27.7" ry="27.7"/>
<g>
	<path class="st0" d="M202.1-162.2c-21.9,0-39.8-17.8-39.8-39.8s17.8-39.8,39.8-39.8s39.8,17.8,39.8,39.8S224.1-162.2,202.1-162.2z
		 M202.1-238.6c-20.2,0-36.5,16.4-36.5,36.5c0,20.2,16.4,36.5,36.5,36.5s36.5-16.4,36.5-36.5C238.6-222.2,222.2-238.6,202.1-238.6z"
		/>
</g>
<ellipse class="st0" cx="202.1" cy="-202.1" rx="28.7" ry="28.7"/>
<g>
	<path class="st0" d="M-202.1,241.9c-21.9,0-39.8-17.8-39.8-39.8s17.8-39.8,39.8-39.8s39.8,17.8,39.8,39.8S-180.1,241.9-202.1,241.9
		z M-202.1,165.5c-20.2,0-36.5,16.4-36.5,36.5s16.4,36.5,36.5,36.5c20.2,0,36.5-16.4,36.5-36.5C-165.6,181.9-182,165.5-202.1,165.5z
		"/>
</g>
<ellipse class="st0" cx="-202.1" cy="202" rx="28.7" ry="28.7"/>
<g>
	<path class="st0" d="M202.1,241.9c-21.9,0-39.8-17.8-39.8-39.8s17.8-39.8,39.8-39.8s39.8,17.8,39.8,39.8S224.1,241.9,202.1,241.9z
		 M202.1,165.5c-20.2,0-36.5,16.4-36.5,36.5s16.4,36.5,36.5,36.5s36.5-16.4,36.5-36.5C238.6,181.9,222.2,165.5,202.1,165.5z"/>
</g>
<ellipse class="st0" cx="202.1" cy="202" rx="28.7" ry="28.7"/>
</svg>
