<?xml version="1.0" encoding="utf-8"?>
<!-- Generator: Adobe Illustrator 25.2.0, SVG Export Plug-In . SVG Version: 6.00 Build 0)  -->
<svg version="1.1" id="Layer_1" xmlns="http://www.w3.org/2000/svg" xmlns:xlink="http://www.w3.org/1999/xlink" x="0px" y="0px"
	 viewBox="0 0 564.6 566.9" style="enable-background:new 0 0 564.6 566.9;" xml:space="preserve">
<style type="text/css">
	.st0{fill:#0483A5;}
</style>
<g>
	<path class="st0" d="M254.9,254.9H-255V-255h509.9L254.9,254.9L254.9,254.9z M-246.4,246.2h492.7v-492.5h-492.7V246.2z"/>
</g>
<g>
	<path class="st0" d="M-250.6-203c-26.3,0-47.6-21.3-47.6-47.6s21.4-47.6,47.6-47.6s47.6,21.3,47.6,47.6S-224.4-203-250.6-203z
		 M-250.6-294.3c-24.1,0-43.7,19.6-43.7,43.7s19.6,43.7,43.7,43.7s43.7-19.6,43.7-43.7S-226.6-294.3-250.6-294.3z"/>
</g>
<ellipse class="st0" cx="-250.6" cy="-250.6" rx="34.3" ry="34.3"/>
<g>
	<path class="st0" d="M250.6-201.2c-27.2,0-49.4-22.1-49.4-49.4s22.1-49.4,49.4-49.4s49.4,22.1,49.4,49.4S277.9-201.2,250.6-201.2z
		 M250.6-295.9c-25,0-45.3,20.3-45.3,45.3c0,25,20.3,45.3,45.3,45.3c25,0,45.3-20.3,45.3-45.3C295.9-275.6,275.6-295.9,250.6-295.9z
		"/>
</g>
<ellipse class="st0" cx="250.6" cy="-250.6" rx="35.6" ry="35.6"/>
<g>
	<path class="st0" d="M-250.6,300c-27.2,0-49.4-22.1-49.4-49.4s22.1-49.4,49.4-49.4s49.4,22.1,49.4,49.4S-223.4,300-250.6,300z
		 M-250.6,205.3c-25,0-45.3,20.3-45.3,45.3c0,25,20.3,45.3,45.3,45.3c25,0,45.3-20.3,45.3-45.3
		C-205.4,225.6-225.7,205.3-250.6,205.3z"/>
</g>
<ellipse class="st0" cx="-250.6" cy="250.5" rx="35.6" ry="35.6"/>
<g>
	<path class="st0" d="M250.6,300c-27.2,0-49.4-22.1-49.4-49.4s22.1-49.4,49.4-49.4s49.4,22.1,49.4,49.4S277.9,300,250.6,300z
		 M250.6,205.3c-25,0-45.3,20.3-45.3,45.3c0,25,20.3,45.3,45.3,45.3c25,0,45.3-20.3,45.3-45.3C295.9,225.6,275.6,205.3,250.6,205.3z
		"/>
</g>
<ellipse class="st0" cx="250.6" cy="250.5" rx="35.6" ry="35.6"/>
</svg>
