<?xml version="1.0" encoding="utf-8"?>
<!-- Generator: Adobe Illustrator 25.2.1, SVG Export Plug-In . SVG Version: 6.00 Build 0)  -->
<svg version="1.1" id="Layer_1" xmlns="http://www.w3.org/2000/svg" xmlns:xlink="http://www.w3.org/1999/xlink" x="0px" y="0px"
	 viewBox="0 0 564.6 566.9" style="enable-background:new 0 0 564.6 566.9;" xml:space="preserve">
<style type="text/css">
	.st0{fill:#0483A5;}
</style>
<g>
	<path class="st0" d="M354.7,354.7h-709.5v-709.5h709.5V354.7z M-342.7,342.7h685.5v-685.5h-685.5V342.7z"/>
</g>
<g>
	<path class="st0" d="M-348.7-253.1c-52.7,0-95.6-42.9-95.6-95.6s42.9-95.6,95.6-95.6s95.6,42.9,95.6,95.6S-296-253.1-348.7-253.1z
		 M-348.7-436.4c-48.3,0-87.6,39.3-87.6,87.6s39.3,87.6,87.6,87.6s87.6-39.3,87.6-87.6S-300.4-436.4-348.7-436.4z"/>
</g>
<circle class="st0" cx="-348.7" cy="-348.7" r="68.8"/>
<g>
	<path class="st0" d="M348.7-253.1c-52.7,0-95.6-42.9-95.6-95.6s42.9-95.6,95.6-95.6s95.6,42.9,95.6,95.6S401.5-253.1,348.7-253.1z
		 M348.7-436.4c-48.3,0-87.6,39.3-87.6,87.6s39.3,87.6,87.6,87.6s87.6-39.3,87.6-87.6S397.1-436.4,348.7-436.4z"/>
</g>
<circle class="st0" cx="348.7" cy="-348.7" r="68.8"/>
<g>
	<path class="st0" d="M-348.7,444.4c-52.7,0-95.6-42.9-95.6-95.6s42.9-95.6,95.6-95.6s95.6,42.9,95.6,95.6S-296,444.4-348.7,444.4z
		 M-348.7,261.1c-48.3,0-87.6,39.3-87.6,87.6s39.3,87.6,87.6,87.6s87.6-39.3,87.6-87.6S-300.4,261.1-348.7,261.1z"/>
</g>
<circle class="st0" cx="-348.7" cy="348.7" r="68.8"/>
<g>
	<path class="st0" d="M348.7,444.4c-52.7,0-95.6-42.9-95.6-95.6s42.9-95.6,95.6-95.6s95.6,42.9,95.6,95.6S401.5,444.4,348.7,444.4z
		 M348.7,261.1c-48.3,0-87.6,39.3-87.6,87.6s39.3,87.6,87.6,87.6s87.6-39.3,87.6-87.6S397.1,261.1,348.7,261.1z"/>
</g>
<circle class="st0" cx="348.7" cy="348.7" r="68.8"/>
</svg>
