<?xml version="1.0" encoding="utf-8"?>
<!-- Generator: Adobe Illustrator 25.2.1, SVG Export Plug-In . SVG Version: 6.00 Build 0)  -->
<svg version="1.1" id="Layer_1" xmlns="http://www.w3.org/2000/svg" xmlns:xlink="http://www.w3.org/1999/xlink" x="0px" y="0px"
	 viewBox="0 0 564.6 566.9" style="enable-background:new 0 0 564.6 566.9;" xml:space="preserve">
<style type="text/css">
	.st0{fill:none;}
	.st1{fill:#0483A5;}
</style>
<g>
	<polygon class="st0" points="-94.4,-195.7 92.4,-195.7 -1,-357.5 	"/>
	<polygon class="st0" points="120,183 311.1,183 215.5,17.5 	"/>
	<polygon class="st0" points="-216.6,16.1 -313,183 -120.3,183 	"/>
	<polygon class="st0" points="-121,-180.2 -312.2,-180.2 -216.6,-14.6 	"/>
	<polygon class="st0" points="-103.3,-180.2 -207.7,0.7 -102.5,183 102.3,183 206.7,2.2 101.4,-180.2 	"/>
	<polygon class="st0" points="93.3,198.5 -93.5,198.5 -0.1,360.3 	"/>
	<polygon class="st0" points="119.3,-180.2 215.7,-13.4 312,-180.2 	"/>
	<polygon class="st0" points="330.1,-181 224.5,1.9 329,182.9 434.6,0 	"/>
	<polygon class="st0" points="111.1,198.5 7.4,378.2 216.2,378.2 320,198.5 	"/>
	<polygon class="st0" points="5,-378.2 110.4,-195.7 321.6,-195.7 216.3,-378.2 	"/>
	<polygon class="st0" points="-7.6,378.2 -111.3,198.5 -324.1,198.5 -220.4,378.2 	"/>
	<polygon class="st0" points="-225.5,0.8 -332.3,-184.2 -438.6,0 -331.8,185.1 	"/>
	<polygon class="st0" points="-112.1,-195.7 -6.8,-378.2 -220.3,-378.2 -325.6,-195.7 	"/>
	<path class="st1" d="M452.6,0L225.3-393.7h-454.6L-454.4-3.9l-2.3,3.9l227.3,393.7h454.6L338,198.5h0l0,0L450.4,3.9L452.6,0z
		 M102.3,183h-204.7L-207.7,0.7l104.4-180.9h204.7L206.7,2.2L102.3,183z M93.3,198.5L-0.1,360.3l-93.4-161.8H93.3z M-94.4-195.7
		L-1-357.5l93.4,161.8H-94.4z M119.3-180.2H312L215.7-13.4L119.3-180.2z M-121-180.2l-95.5,165.6l-95.6-165.6H-121z M-216.6,16.1
		l96.3,166.9H-313L-216.6,16.1z M120,183l95.5-165.5L311.1,183H120z M110.4-195.7L5-378.2h211.3l105.3,182.5H110.4z M-6.8-378.2
		l-105.3,182.5h-213.5l105.3-182.5H-6.8z M-332.3-184.2l106.8,185l-106.3,184.3L-438.6,0L-332.3-184.2z M-111.3,198.5L-7.6,378.2
		h-212.8l-103.7-179.7H-111.3z M7.4,378.2l103.7-179.7H320L216.2,378.2H7.4z M224.5,1.9l105.6-183L434.6,0L329,182.9L224.5,1.9z"/>
</g>
</svg>
