<?xml version="1.0" encoding="utf-8"?>
<!-- Generator: Adobe Illustrator 25.2.0, SVG Export Plug-In . SVG Version: 6.00 Build 0)  -->
<svg version="1.1" id="Layer_1" xmlns="http://www.w3.org/2000/svg" xmlns:xlink="http://www.w3.org/1999/xlink" x="0px" y="0px"
	 viewBox="0 0 564.6 566.9" style="enable-background:new 0 0 564.6 566.9;" xml:space="preserve">
<style type="text/css">
	.st0{fill:#0483A5;}
</style>
<g>
	<path class="st0" d="M223,389.7h-450L-452,0l1.1-1.9L-227-389.7h450L448,0l-1.1,1.9L223,389.7z M-222.7,382.2h441.2L439.2,0
		L218.6-382.2h-441.2L-443.2,0L-222.7,382.2z"/>
</g>
<g>
	<path class="st0" d="M331.1,194.5h-663.7L-0.9-380.4L331.1,194.5z M-319.9,187h637.9l-319-552.5L-319.9,187z"/>
</g>
<g>
	<path class="st0" d="M-0.1,383.2L-332-191.7h663.7l-3.3,5.6L-0.1,383.2z M-319.1-184.2l319,552.5l319-552.5L-319.1-184.2
		L-319.1-184.2z"/>
</g>
</svg>
