<?xml version="1.0" encoding="utf-8"?>
<!-- Generator: Adobe Illustrator 25.2.1, SVG Export Plug-In . SVG Version: 6.00 Build 0)  -->
<svg version="1.1" id="Layer_1" xmlns="http://www.w3.org/2000/svg" xmlns:xlink="http://www.w3.org/1999/xlink" x="0px" y="0px"
	 viewBox="0 0 564.6 566.9" style="enable-background:new 0 0 564.6 566.9;" xml:space="preserve">
<style type="text/css">
	.st0{fill:none;}
	.st1{fill:#0483A5;}
</style>
<g>
	<polygon class="st0" points="-71.2,-153 71.2,-153 0,-276.3 	"/>
	<polygon class="st0" points="-79.9,-138.2 -159.6,0 -79.8,138.2 79.8,138.2 159.6,0 79.8,-138.2 	"/>
	<polygon class="st0" points="239.4,-138.2 97,-138.2 168.2,-14.8 	"/>
	<polygon class="st0" points="239.4,138.1 168.2,14.8 97,138.1 	"/>
	<polygon class="st0" points="71.2,153 -71.2,153 0,276.3 	"/>
	<polygon class="st0" points="-96.8,-138.2 -239.4,-138.2 -168.2,-14.8 	"/>
	<polygon class="st0" points="-239.4,138.2 -97,138.2 -168.2,14.9 	"/>
	<path class="st1" d="M265.2-153H88.4L0-306l-88.4,153h-176.8l88.4,153l-88.4,153h176.8L0,306l88.4-153h176.8L176.8,0L265.2-153z
		 M239.4,138.1H97l71.2-123.3L239.4,138.1z M97-138.2h142.4L168.2-14.8L97-138.2z M159.6,0L79.8,138.2H-79.8L-159.6,0l79.8-138.2
		H79.8L159.6,0z M-71.2-153L0-276.3L71.2-153H-71.2z M-97,138.2h-142.4l71.2-123.3L-97,138.2z M-239.4-138.2h142.6l-71.4,123.4
		L-239.4-138.2z M71.2,153L0,276.3L-71.2,153H71.2z"/>
</g>
<path class="st1" d="M0-117.8C-65-117.8-117.9-65-117.9,0S-65,117.8,0,117.8S117.9,65,117.9,0S65-117.8,0-117.8z M0,105.6
	c-58.3,0-105.7-47.4-105.7-105.6S-58.3-105.6,0-105.6S105.7-58.2,105.7,0S58.3,105.6,0,105.6z"/>
</svg>
