<?xml version="1.0" encoding="utf-8"?>
<!-- Generator: Adobe Illustrator 25.2.1, SVG Export Plug-In . SVG Version: 6.00 Build 0)  -->
<svg version="1.1" id="Layer_1" xmlns="http://www.w3.org/2000/svg" xmlns:xlink="http://www.w3.org/1999/xlink" x="0px" y="0px"
	 viewBox="0 0 564.6 566.9" style="enable-background:new 0 0 564.6 566.9;" xml:space="preserve">
<style type="text/css">
	.st0{fill:none;}
	.st1{fill:#0483A5;}
</style>
<g>
	<polygon class="st0" points="-221.5,-127.9 -152.3,-8 -83.1,-127.9 	"/>
	<polygon class="st0" points="0,-255.8 -69.2,-135.9 69.2,-135.9 	"/>
	<polygon class="st0" points="-147.7,0 -73.8,127.9 73.8,127.9 147.7,0 73.8,-127.9 -73.8,-127.9 	"/>
	<polygon class="st0" points="221.5,-127.9 83.1,-127.9 152.3,-8 	"/>
	<polygon class="st0" points="0,255.8 69.2,135.9 -69.2,135.9 	"/>
	<polygon class="st0" points="152.3,8 83.1,127.9 221.5,127.9 	"/>
	<polygon class="st0" points="-221.5,127.9 -83.1,127.9 -152.3,8 	"/>
	<path class="st1" d="M156.9,0l78.5-135.9H78.5L0-271.8l-78.5,135.9h-156.9L-156.9,0l-78.5,135.9h156.9L0,271.8l78.5-135.9h156.9
		L156.9,0z M221.5-127.9L152.3-8L83.1-127.9H221.5z M147.7,0L73.8,127.9H-73.8L-147.7,0l73.8-127.9H73.8L147.7,0z M0-255.8
		l69.2,119.9H-69.2L0-255.8z M-221.5-127.9h138.5L-152.3-8L-221.5-127.9z M-221.5,127.9L-152.3,8l69.2,119.9H-221.5z M0,255.8
		l-69.2-119.9H69.2L0,255.8z M152.3,8l69.2,119.9H83.1L152.3,8z"/>
</g>
<g>
	<path class="st1" d="M0,112.9c-62.3,0-112.9-50.7-112.9-112.9S-62.3-112.9,0-112.9S112.9-62.3,112.9,0S62.3,112.9,0,112.9z
		 M0-104.9c-57.9,0-104.9,47.1-104.9,104.9S-57.9,104.9,0,104.9S104.9,57.9,104.9,0S57.9-104.9,0-104.9z"/>
</g>
</svg>
