<?xml version="1.0" encoding="utf-8"?>
<!-- Generator: Adobe Illustrator 25.2.1, SVG Export Plug-In . SVG Version: 6.00 Build 0)  -->
<svg version="1.1" id="Layer_1" xmlns="http://www.w3.org/2000/svg" xmlns:xlink="http://www.w3.org/1999/xlink" x="0px" y="0px"
	 viewBox="0 0 564.6 566.9" style="enable-background:new 0 0 564.6 566.9;" xml:space="preserve">
<style type="text/css">
	.st0{fill:#0483A5;}
</style>
<g>
	<path class="st0" d="M239.2,417.9h-482.5L-484.5,0l1.2-2l240.1-415.9h482.5L480.5,0l-1.2,2L239.2,417.9z M-238.6,409.8h473.1
		L471.1,0L234.6-409.8h-473.1L-475.1,0L-238.6,409.8z"/>
</g>
<g>
	<path class="st0" d="M355.1,208.5h-711.7L-0.8-407.9L355.1,208.5z M-342.8,200.5h684l-342-592.4L-342.8,200.5z"/>
</g>
<g>
	<path class="st0" d="M0,410.9l-355.8-616.4h711.7l-3.5,6L0,410.9z M-342-197.5L0,394.9l342-592.4H-342z"/>
</g>
</svg>
