<?xml version="1.0" encoding="utf-8"?>
<!-- Generator: Adobe Illustrator 25.2.0, SVG Export Plug-In . SVG Version: 6.00 Build 0)  -->
<svg version="1.1" id="Layer_1" xmlns="http://www.w3.org/2000/svg" xmlns:xlink="http://www.w3.org/1999/xlink" x="0px" y="0px"
	 viewBox="0 0 564.6 566.9" style="enable-background:new 0 0 564.6 566.9;" xml:space="preserve">
<style type="text/css">
	.st0{fill:#0483A5;}
</style>
<g>
	<path class="st0" d="M286.6,500h-577.3L-579.3,0l1.4-2.4L-290.6-500h577.3L575.3,0l-1.4,2.4L286.6,500z M-285.1,490.3h566L564,0
		l-283-490.3h-566L-568,0L-285.1,490.3z"/>
</g>
<g>
	<path class="st0" d="M425.3,249.5h-851.5L-0.6-488L425.3,249.5z M-409.8,239.9h818.4L-0.6-468.9L-409.8,239.9z"/>
</g>
<g>
	<path class="st0" d="M0.4,491.6l-425.7-737.5h851.5l-4.2,7.2L0.4,491.6z M-408.8-236.3L0.4,472.5l409.2-708.8L-408.8-236.3
		L-408.8-236.3z"/>
</g>
</svg>
