<?xml version="1.0" encoding="utf-8"?>
<!-- Generator: Adobe Illustrator 25.2.0, SVG Export Plug-In . SVG Version: 6.00 Build 0)  -->
<svg version="1.1" id="Layer_1" xmlns="http://www.w3.org/2000/svg" xmlns:xlink="http://www.w3.org/1999/xlink" x="0px" y="0px"
	 viewBox="0 0 564.6 566.9" style="enable-background:new 0 0 564.6 566.9;" xml:space="preserve">
<style type="text/css">
	.st0{fill:#00AEEF;}
</style>
<ellipse class="st0" cx="156.9" cy="85" rx="28.7" ry="28.9"/>
<ellipse class="st0" cx="-156.9" cy="85" rx="28.7" ry="28.9"/>
<ellipse class="st0" cx="1.5" cy="-178.9" rx="28.9" ry="29.1"/>
<g>
	<path class="st0" d="M-156.9,128.3c-23.7,0-43.1-19.5-43.1-43.3s19.4-43.3,43.1-43.3s43.1,19.5,43.1,43.3S-133.2,128.3-156.9,128.3
		z M-156.9,49.5c-19.5,0-35.3,15.9-35.3,35.5s15.8,35.5,35.3,35.5s35.3-15.9,35.3-35.5C-121.6,65.5-137.4,49.5-156.9,49.5z"/>
</g>
<g>
	<path class="st0" d="M1.5-135.6c-23.7,0-43.1-19.5-43.1-43.3s19.4-43.3,43.1-43.3s43.1,19.5,43.1,43.3S25.2-135.6,1.5-135.6z
		 M1.5-214.4c-19.5,0-35.3,15.9-35.3,35.5s15.8,35.5,35.3,35.5s35.3-15.9,35.3-35.5C36.8-198.6,20.9-214.4,1.5-214.4z"/>
</g>
<g>
	<path class="st0" d="M156.9,128.3c-23.7,0-43.1-19.5-43.1-43.3s19.4-43.3,43.1-43.3S200,61.2,200,85S180.6,128.3,156.9,128.3z
		 M156.9,49.5c-19.5,0-35.3,15.9-35.3,35.5s15.8,35.5,35.3,35.5s35.3-15.9,35.3-35.5C192.1,65.5,176.4,49.5,156.9,49.5z"/>
</g>
<g>
	<path class="st0" d="M0,180.9c-99.2,0-179.9-81.2-179.9-180.8S-99.2-180.9,0-180.9S179.9-99.7,179.9,0S99.2,180.9,0,180.9z
		 M0-175.9c-96.5,0-175,79-175,175.9S-96.4,176,0,176S175,97,175,0S96.5-175.9,0-175.9z"/>
</g>
</svg>
